<?xml version="1.0" encoding="UTF-8" standalone="no"?>
<svg width="41px" height="46px" viewBox="0 0 41 46" version="1.1" xmlns="http://www.w3.org/2000/svg" xmlns:xlink="http://www.w3.org/1999/xlink" xmlns:sketch="http://www.bohemiancoding.com/sketch/ns">
    <!-- Generator: Sketch 3.3.2 (12043) - http://www.bohemiancoding.com/sketch -->
    <title>apple</title>
    <desc>Created with Sketch.</desc>
    <defs></defs>
    <g id="Page-1" stroke="none" stroke-width="1" fill="none" fill-rule="evenodd" sketch:type="MSPage">
        <g id="apple" sketch:type="MSArtboardGroup" fill="#B3B3B3">
            <g id="Icon-applestore" sketch:type="MSLayerGroup" transform="translate(1.000000, 1.000000)">
                <g id="Page-1" sketch:type="MSShapeGroup">
                    <path d="M30.6014986,23.8991137 C30.551482,18.3403798 35.153003,15.6360376 35.3634174,15.5101339 C32.7573836,11.7106021 28.7181174,11.191465 27.2986827,11.150072 C23.906182,10.7930575 20.6154391,13.1800534 18.8872817,13.1800534 C17.1246301,13.1800534 14.4634056,11.1845662 11.5952162,11.2432063 C7.90434104,11.3001216 4.45147558,13.4370349 2.55774618,16.7553731 C-1.3504422,23.5214026 1.56431436,33.4643444 5.30865547,38.9333935 C7.18168838,41.6118651 9.37034285,44.6025088 12.2350829,44.4973016 C15.0377334,44.3817461 16.0846312,42.7105041 19.4667836,42.7105041 C22.8178913,42.7105041 23.8009749,44.4973016 26.7226302,44.430038 C29.730521,44.3817461 31.6242504,41.7394935 33.4317444,39.036876 C35.596253,35.9668957 36.4655058,32.9434826 36.5,32.7882588 C36.429287,32.7641129 30.6584139,30.5616608 30.6014986,23.8991137 L30.6014986,23.8991137 Z M25.0824329,7.55233109 C26.5898277,5.66722523 27.6212031,3.1025844 27.3349016,0.5 C25.1531459,0.596583649 22.4246579,2.00911952 20.8534488,3.85283239 C19.4633342,5.47750734 18.2215444,8.14045653 18.5423401,10.6447326 C20.9931502,10.8275516 23.5094992,9.40811692 25.0824329,7.55233109 L25.0824329,7.55233109 Z" id="apple-copy-8"></path>
                </g>
            </g>
        </g>
    </g>
</svg>