<?xml version="1.0" encoding="UTF-8" standalone="no"?>
<svg width="41px" height="46px" viewBox="0 0 41 46" version="1.1" xmlns="http://www.w3.org/2000/svg" xmlns:xlink="http://www.w3.org/1999/xlink" xmlns:sketch="http://www.bohemiancoding.com/sketch/ns">
    <!-- Generator: Sketch 3.3.2 (12043) - http://www.bohemiancoding.com/sketch -->
    <title>linux</title>
    <desc>Created with Sketch.</desc>
    <defs></defs>
    <g id="Page-1" stroke="none" stroke-width="1" fill="none" fill-rule="evenodd" sketch:type="MSPage">
        <g id="linux" sketch:type="MSArtboardGroup" fill="#B3B3B3">
            <g id="Group" sketch:type="MSLayerGroup" transform="translate(2.000000, 1.000000)">
                <path d="M17.8521401,10.5016502 C17.8521401,10.6435644 17.7081712,10.6435644 17.7081712,10.6435644 L17.5642023,10.6435644 C17.4202335,10.6435644 17.4202335,10.5016502 17.2762646,10.359736 C17.2762646,10.359736 17.1322957,10.2178218 17.1322957,10.0759076 C17.1322957,9.9339934 17.1322957,9.9339934 17.2762646,9.9339934 L17.5642023,10.0759076 C17.7081712,10.2178218 17.8521401,10.359736 17.8521401,10.5016502 M15.2607004,9.08250825 C15.2607004,8.37293729 14.9727626,7.94719472 14.540856,7.94719472 C14.540856,7.94719472 14.540856,8.08910891 14.3968872,8.08910891 L14.3968872,8.37293729 L14.8287938,8.37293729 C14.8287938,8.65676568 14.9727626,8.79867987 14.9727626,9.08250825 L15.2607004,9.08250825 M20.2996109,8.37293729 C20.5875486,8.37293729 20.7315175,8.65676568 20.8754864,9.08250825 L21.1634241,9.08250825 C21.0194553,8.94059406 21.0194553,8.79867987 21.0194553,8.65676568 C21.0194553,8.51485149 21.0194553,8.37293729 20.8754864,8.2310231 C20.7315175,8.08910891 20.5875486,7.94719472 20.4435798,7.94719472 C20.4435798,7.94719472 20.2996109,8.08910891 20.155642,8.08910891 C20.155642,8.2310231 20.2996109,8.2310231 20.2996109,8.37293729 M15.9805447,10.6435644 C15.8365759,10.6435644 15.8365759,10.6435644 15.8365759,10.5016502 C15.8365759,10.359736 15.8365759,10.2178218 15.9805447,10.0759076 C16.2684825,10.0759076 16.4124514,9.9339934 16.4124514,9.9339934 C16.5564202,9.9339934 16.5564202,10.0759076 16.5564202,10.0759076 C16.5564202,10.2178218 16.4124514,10.359736 16.1245136,10.6435644 L15.9805447,10.6435644 M14.3968872,10.5016502 C13.8210117,10.2178218 13.6770428,9.79207921 13.6770428,9.08250825 C13.6770428,8.65676568 13.6770428,8.37293729 13.9649805,8.08910891 C14.1089494,7.80528053 14.3968872,7.66336634 14.6848249,7.66336634 C14.9727626,7.66336634 15.1167315,7.80528053 15.4046693,8.08910891 C15.5486381,8.51485149 15.692607,8.94059406 15.692607,9.36633663 L15.692607,9.50825083 L15.692607,9.65016502 L15.8365759,9.65016502 L15.8365759,9.50825083 C15.9805447,9.50825083 15.9805447,9.22442244 15.9805447,8.65676568 C15.9805447,8.2310231 15.9805447,7.80528053 15.692607,7.37953795 C15.4046693,6.95379538 15.1167315,6.669967 14.540856,6.669967 C14.1089494,6.669967 13.6770428,6.95379538 13.5330739,7.37953795 C13.2451362,7.94719472 13.1875486,8.37293729 13.1875486,9.08250825 C13.1875486,9.65016502 13.3891051,10.2178218 13.9649805,10.7854785 C14.1089494,10.6435644 14.2529183,10.6435644 14.3968872,10.5016502 M32.3929961,30.5115512 C32.536965,30.5115512 32.536965,30.4547855 32.536965,30.3270627 C32.536965,30.0148515 32.3929961,29.6458746 31.9610895,29.2343234 C31.5291829,28.8085809 30.8093385,28.5389439 29.9455253,28.4254125 C29.8015564,28.4112211 29.6575875,28.4112211 29.6575875,28.4112211 C29.5136187,28.3828383 29.5136187,28.3828383 29.3696498,28.3828383 C29.2256809,28.3686469 28.9377432,28.340264 28.7937743,28.3118812 C29.2256809,26.9920792 29.3696498,25.8283828 29.3696498,24.8066007 C29.3696498,23.3874587 29.0817121,22.3940594 28.5058366,21.5425743 C27.9299611,20.6910891 27.3540856,20.2653465 26.6342412,20.1234323 C26.4902724,20.2653465 26.4902724,20.2653465 26.4902724,20.4072607 C27.2101167,20.6910891 27.9299611,21.2587459 28.3618677,22.110231 C28.7937743,23.1036304 28.9377432,23.9551155 28.9377432,24.9485149 C28.9377432,25.7432343 28.7937743,26.9211221 28.2178988,28.4254125 C27.6420233,28.6524752 27.0661479,29.1775578 26.6342412,30.0006601 C26.6342412,30.1283828 26.6342412,30.1993399 26.7782101,30.1993399 C26.7782101,30.1993399 26.922179,30.0716172 27.0661479,29.830363 C27.3540856,29.5891089 27.4980545,29.3478548 27.7859922,29.1066007 C28.2178988,28.8653465 28.5058366,28.7376238 28.9377432,28.7376238 C29.6575875,28.7376238 30.3774319,28.8369637 30.8093385,29.0356436 C31.385214,29.220132 31.6731518,29.4188119 31.8171206,29.6458746 C31.9610895,29.8587459 32.1050584,30.0574257 32.2490272,30.2419142 C32.2490272,30.4264026 32.3929961,30.5115512 32.3929961,30.5115512 M19.1478599,9.9339934 C19.0038911,9.79207921 19.0038911,9.50825083 19.0038911,9.22442244 C19.0038911,8.65676568 19.0038911,8.37293729 19.2918288,7.94719472 C19.5797665,7.66336634 19.8677043,7.52145215 20.155642,7.52145215 C20.5875486,7.52145215 20.8754864,7.80528053 21.1634241,8.08910891 C21.307393,8.51485149 21.4513619,8.79867987 21.4513619,9.22442244 C21.4513619,9.9339934 21.1634241,10.359736 20.5875486,10.5016502 C20.5875486,10.5016502 20.7315175,10.6435644 20.8754864,10.6435644 C21.1634241,10.6435644 21.307393,10.7854785 21.5953307,10.9273927 C21.7392996,10.0759076 21.8832685,9.50825083 21.8832685,8.79867987 C21.8832685,7.94719472 21.7392996,7.37953795 21.4513619,6.95379538 C21.0194553,6.52805281 20.5875486,6.38613861 20.0116732,6.38613861 C19.5797665,6.38613861 19.1478599,6.52805281 18.7159533,6.81188119 C18.4280156,7.23762376 18.2840467,7.52145215 18.2840467,7.94719472 C18.2840467,8.65676568 18.4280156,9.22442244 18.7159533,9.79207921 C18.8599222,9.79207921 19.0038911,9.9339934 19.1478599,9.9339934 M20.8754864,12.2046205 C19.0038911,13.4818482 17.5642023,14.049505 16.4124514,14.049505 C15.4046693,14.049505 14.3968872,13.6237624 13.5330739,12.9141914 C13.6770428,13.1980198 13.8210117,13.4818482 13.9649805,13.6237624 L14.8287938,14.4752475 C15.4046693,15.0429043 16.1245136,15.3267327 16.844358,15.3267327 C17.8521401,15.3267327 19.0038911,14.7590759 20.4435798,13.7656766 L21.7392996,12.9141914 C22.0272374,12.630363 22.3151751,12.3465347 22.3151751,11.9207921 C22.3151751,11.7788779 22.3151751,11.6369637 22.1712062,11.6369637 C22.0272374,11.3531353 21.307393,10.9273927 19.8677043,10.5016502 C18.5719844,9.9339934 17.5642023,9.65016502 16.9883268,9.65016502 C16.5564202,9.65016502 15.8365759,9.9339934 14.8287938,10.5016502 C13.9649805,11.0693069 13.3891051,11.6369637 13.3891051,12.2046205 C13.3891051,12.2046205 13.5330739,12.3465347 13.6770428,12.630363 C14.540856,13.339934 15.4046693,13.7656766 16.2684825,13.7656766 C17.4202335,13.7656766 18.8599222,13.1980198 20.7315175,11.7788779 L20.7315175,12.0627063 C20.8754864,12.0627063 20.8754864,12.2046205 20.8754864,12.2046205 M24.1867704,40.8712871 C24.7626459,41.9384818 25.770428,42.4749175 26.922179,42.4749175 C27.2101167,42.4749175 27.4980545,42.4323432 27.7859922,42.3471947 C28.07393,42.290429 28.3618677,42.1910891 28.5058366,42.0775578 C28.6498054,41.9782178 28.7937743,41.8788779 28.9377432,41.7653465 C29.2256809,41.6660066 29.2256809,41.5950495 29.3696498,41.5240924 L31.8171206,39.4379538 C32.3929961,38.9852475 32.9688716,38.5893069 33.688716,38.2458746 C34.2645914,37.9052805 34.8404669,37.6782178 35.1284047,37.550495 C35.5603113,37.4369637 35.848249,37.2666667 36.1361868,37.039604 C36.2801556,36.8267327 36.4241245,36.5570957 36.4241245,36.2165017 C36.4241245,35.8049505 36.1361868,35.4927393 35.848249,35.2656766 C35.5603113,35.0386139 35.2723735,34.8825083 34.9844358,34.7831683 C34.6964981,34.6838284 34.4085603,34.4567657 33.9766537,34.0735974 C33.688716,33.7046205 33.4007782,33.1937294 33.2568093,32.5267327 L33.1128405,31.7036304 C32.9688716,31.320462 32.9688716,31.0366337 32.8249027,30.8805281 C32.8249027,30.8379538 32.8249027,30.8237624 32.6809339,30.8237624 C32.536965,30.8237624 32.2490272,30.9514851 32.1050584,31.1927393 C31.8171206,31.4339934 31.5291829,31.7036304 31.2412451,31.9874587 C31.0972763,32.2712871 30.6653696,32.5267327 30.3774319,32.7679868 C29.9455253,33.0092409 29.5136187,33.1369637 29.2256809,33.1369637 C28.07393,33.1369637 27.4980545,32.8247525 27.0661479,32.2145215 C26.7782101,31.760396 26.6342412,31.2353135 26.4902724,30.6392739 C26.2023346,30.3980198 26.0583658,30.270297 25.770428,30.270297 C25.0505837,30.270297 24.7626459,31.0082508 24.7626459,32.4983498 L24.7626459,32.9666667 L24.7626459,34.6128713 L24.7626459,35.8759076 L24.7626459,36.4861386 L24.7626459,36.9118812 C24.7626459,37.039604 24.618677,37.3234323 24.618677,37.7633663 C24.4747082,38.2033003 24.4747082,38.7028383 24.4747082,39.2676568 L24.1867704,40.8429043 L24.1867704,40.8670297 M3.31128405,40.1163036 C4.65019455,40.3093069 6.19066148,40.7222772 7.93268482,41.3523762 C9.67470817,41.9767987 10.7400778,42.3032013 11.1287938,42.3032013 C12.1365759,42.3032013 12.9715953,41.8632673 13.6626459,41.0132013 C13.8066148,40.7378878 13.8066148,40.4143234 13.8066148,40.0425083 C13.8066148,38.7014191 12.9859922,37.0055446 11.3447471,34.9477888 L10.3657588,33.6563696 C10.1642023,33.3867327 9.91945525,32.9751815 9.60272374,32.4217162 C9.30038911,31.8682508 9.02684825,31.4425083 8.81089494,31.1444884 C8.62373541,30.8180858 8.32140078,30.4916832 7.93268482,30.1652805 C7.55836576,29.8388779 7.12645914,29.6260066 6.65136187,29.5124752 C6.04669261,29.6260066 5.62918288,29.8246865 5.42762646,30.0943234 C5.22607004,30.3639604 5.11089494,30.6619802 5.08210117,30.9741914 C5.03891051,31.2722112 4.95252918,31.4708911 4.80856031,31.570231 C4.66459144,31.6553795 4.41984436,31.7263366 4.08871595,31.7972937 C4.01673152,31.7972937 3.88715953,31.7972937 3.7,31.8114851 L3.31128405,31.8114851 C2.54824903,31.8114851 2.02996109,31.8966337 1.75642023,32.0385479 C1.39649805,32.450099 1.20933852,32.9184158 1.20933852,33.4151155 C1.20933852,33.6421782 1.26692607,34.0253465 1.38210117,34.5646205 C1.49727626,35.089703 1.55486381,35.5154455 1.55486381,35.8134653 C1.55486381,36.3953135 1.38210117,36.9771617 1.02217899,37.5590099 C0.662256809,38.1692409 0.475097276,38.6233663 0.475097276,38.9469307 C0.619066148,39.4975578 1.5692607,39.8849835 3.31128405,40.1120462 M8.10544747,27.2120462 C8.10544747,26.2328383 8.36459144,25.1542904 8.89727626,23.8770627 C9.4155642,22.599835 9.93385214,21.7483498 10.4377432,21.1806931 C10.4089494,21.0387789 10.336965,21.0387789 10.2217899,21.0387789 L10.077821,20.8968647 C9.66031128,21.3226073 9.15642023,22.3160066 8.55175097,23.7351485 C7.94708171,25.0123762 7.63035019,26.190264 7.63035019,27.0559406 C7.63035019,27.6945545 7.78871595,28.2480198 8.0766537,28.7305281 C8.39338521,29.1988449 9.15642023,29.880033 10.3657588,30.7457096 L11.8918288,31.7249175 C13.518677,33.1156766 14.3824903,34.0806931 14.3824903,34.6483498 C14.3824903,34.9463696 14.2385214,35.2443894 13.8066148,35.5707921 C13.518677,35.9113861 13.1299611,36.0816832 12.7988327,36.0816832 C12.7700389,36.0816832 12.755642,36.110066 12.755642,36.1810231 C12.755642,36.1952145 12.8996109,36.4790429 13.2019455,37.0325083 C13.8066148,37.8414191 15.1023346,38.2387789 16.8299611,38.2387789 C19.9972763,38.2387789 22.4447471,36.9615512 24.3163424,34.4070957 C24.3163424,33.6975248 24.3163424,33.2575908 24.1723735,33.0731023 L24.1723735,32.5480198 C24.1723735,31.6255776 24.3163424,30.930198 24.6042802,30.4760726 C24.8922179,30.0219472 25.1801556,29.8090759 25.6120623,29.8090759 C25.9,29.8090759 26.1879377,29.9084158 26.4758755,30.1212871 C26.6198444,29.0285479 26.6198444,28.0777228 26.6198444,27.2262376 C26.6198444,25.9348185 26.6198444,24.870462 26.3319066,23.8770627 C26.1879377,23.0255776 25.9,22.3160066 25.6120623,21.7483498 C25.3241245,21.3226073 25.0361868,20.8968647 24.748249,20.4711221 C24.4603113,20.0453795 24.3163424,19.619637 24.0284047,19.1938944 C23.8844358,18.6262376 23.7404669,18.200495 23.7404669,17.4909241 C23.3085603,16.7813531 23.0206226,16.0717822 22.588716,15.3622112 C22.3007782,14.6526403 22.0128405,13.9430693 21.7249027,13.3754125 L20.4291829,14.3688119 C18.9894942,15.3622112 17.8377432,15.7879538 16.8299611,15.7879538 C15.9661479,15.7879538 15.2463035,15.6460396 14.8143969,15.0783828 L13.9505837,14.3688119 C13.9505837,14.7945545 13.8066148,15.3622112 13.518677,15.929868 L12.6116732,17.6328383 C12.2085603,18.6262376 11.992607,19.1938944 11.9494163,19.619637 C11.8918288,19.9034653 11.8486381,20.1872937 11.8198444,20.1872937 L10.7400778,22.3160066 C9.57392996,24.4447195 8.98365759,26.4173267 8.98365759,28.0493399 C8.98365759,28.3757426 9.01245136,28.7163366 9.07003891,29.0569307 C8.42217899,28.6169967 8.10544747,28.0067657 8.10544747,27.2120462 M18.4136187,40.6371287 C16.5420233,40.6371287 15.1023346,40.8868977 14.0945525,41.3821782 L14.0945525,41.339604 C13.3747082,42.1910891 12.5684825,42.6310231 11.4455253,42.6310231 C10.7400778,42.6310231 9.63151751,42.3613861 8.13424125,41.8221122 C6.62256809,41.3112211 5.28365759,40.919538 4.11750973,40.6612541 C4.00233463,40.6286139 3.74319066,40.580363 3.32568093,40.5150825 C2.92256809,40.4512211 2.54824903,40.3859406 2.21712062,40.3206601 C1.91478599,40.2567987 1.5692607,40.160297 1.19494163,40.029736 C0.835019455,39.9176238 0.547081712,39.7714521 0.331128405,39.5940594 C0.132451362,39.4152475 0.0345525292,39.2137294 0.0345525292,38.9880858 C0.0345525292,38.7610231 0.0835019455,38.5183498 0.181400778,38.260066 C0.273540856,38.1039604 0.374319066,37.9478548 0.475097276,37.8059406 C0.575875486,37.649835 0.662256809,37.5079208 0.719844358,37.3660066 C0.806225681,37.2382838 0.86381323,37.1105611 0.921400778,36.9686469 C0.978988327,36.8409241 1.03657588,36.7132013 1.06536965,36.5570957 C1.09416342,36.4151815 1.1229572,36.2732673 1.1229572,36.1313531 C1.1229572,35.9894389 1.06536965,35.5636964 0.950194553,34.8115512 C0.835019455,34.0735974 0.777431907,33.6052805 0.777431907,33.4066007 C0.777431907,32.7821782 0.921400778,32.2854785 1.2381323,31.9306931 C1.55486381,31.5759076 1.85719844,31.3914191 2.17392996,31.3914191 L3.82957198,31.3914191 C3.95914397,31.3914191 4.16070039,31.320462 4.46303502,31.150165 C4.56381323,30.9231023 4.65019455,30.7386139 4.7077821,30.5683168 C4.77976654,30.3980198 4.80856031,30.270297 4.83735409,30.2135314 C4.86614786,30.1283828 4.89494163,30.0432343 4.92373541,29.9722772 C4.98132296,29.8729373 5.05330739,29.7594059 5.1540856,29.6458746 C5.03891051,29.5039604 4.98132296,29.3194719 4.98132296,29.0924092 C4.98132296,28.9363036 4.98132296,28.7943894 5.01011673,28.7092409 C5.01011673,28.1983498 5.25486381,27.4745875 5.77315175,26.5237624 L6.2770428,25.629703 C6.69455253,24.8633663 7.01128405,24.2957096 7.24163424,23.7280528 C7.48638132,23.160396 7.74552529,22.3089109 8.03346304,21.1735974 C8.26381323,20.180198 8.81089494,19.1867987 9.67470817,18.1933993 L10.7544747,16.9161716 C11.5031128,16.0646865 11.992607,15.3551155 12.2661479,14.7874587 C12.5396887,14.219802 12.6836576,13.510231 12.6836576,12.9425743 C12.6836576,12.6587459 12.6116732,11.8072607 12.4533074,10.3881188 C12.3093385,8.9689769 12.2373541,7.54983498 12.2373541,6.27260726 C12.2373541,5.27920792 12.3237354,4.56963696 12.5108949,3.86006601 C12.6980545,3.15049505 13.0291829,2.44092409 13.518677,1.87326733 C13.9505837,1.30561056 14.5264591,0.737953795 15.3902724,0.454125413 C16.2540856,0.17029703 17.2618677,0.0283828383 18.4136187,0.0283828383 C18.8455253,0.0283828383 19.2774319,0.0283828383 19.7093385,0.17029703 C20.1412451,0.17029703 20.7171206,0.312211221 21.436965,0.596039604 C22.0128405,0.879867987 22.588716,1.16369637 23.0206226,1.58943894 C23.5964981,2.01518152 24.0284047,2.72475248 24.4603113,3.43432343 C24.748249,4.28580858 25.0361868,5.13729373 25.1801556,6.27260726 C25.3241245,6.98217822 25.3241245,7.69174917 25.4680934,8.68514851 C25.4680934,9.53663366 25.6120623,10.1042904 25.6120623,10.530033 C25.7560311,10.9557756 25.7560311,11.5234323 25.9,12.2330033 C26.0439689,12.8006601 26.1879377,13.3683168 26.4758755,13.7940594 C26.7638132,14.3617162 27.051751,14.9293729 27.4836576,15.4970297 C27.9155642,16.2066007 28.4914397,16.9161716 29.0673152,17.7676568 C30.363035,19.1867987 31.3708171,20.7478548 31.9466926,22.3089109 C32.666537,23.7280528 33.0984436,25.5729373 33.0984436,27.5455446 C33.0984436,28.5247525 32.9544747,29.4755776 32.666537,30.3980198 C32.9544747,30.3980198 33.0984436,30.5115512 33.2424125,30.710231 C33.3863813,30.9089109 33.5303502,31.3346535 33.6743191,32.0016502 L33.8182879,33.0518152 C33.9622568,33.3640264 34.1062257,33.6620462 34.5381323,33.9174917 C34.82607,34.1729373 35.1140078,34.3858086 35.5459144,34.5561056 C35.8338521,34.6980198 36.2657588,34.8966997 36.5536965,35.1521452 C36.8416342,35.4359736 36.9856031,35.7339934 36.9856031,36.0462046 C36.9856031,36.5287129 36.8416342,36.8834983 36.5536965,37.1389439 C36.2657588,37.4227723 35.977821,37.6214521 35.5459144,37.7491749 C35.2579767,37.8910891 34.6821012,38.1749175 33.8182879,38.5751155 C33.0984436,38.9951815 32.3785992,39.5046535 31.6587549,40.1077888 L30.2190661,41.3154785 C29.6431907,41.8689439 29.0673152,42.2663036 28.6354086,42.5075578 C28.2035019,42.7630033 27.6276265,42.8907261 27.051751,42.8907261 L26.0439689,42.7771947 C24.8922179,42.4791749 24.1723735,41.9115182 23.7404669,41.0458416 C21.436965,40.7705281 19.5653696,40.6342904 18.4136187,40.6342904" id="Shape" sketch:type="MSShapeGroup"></path>
            </g>
        </g>
    </g>
</svg>