<?xml version="1.0" encoding="UTF-8" standalone="no"?>
<svg width="46px" height="46px" viewBox="0 0 46 46" version="1.1" xmlns="http://www.w3.org/2000/svg" xmlns:xlink="http://www.w3.org/1999/xlink" xmlns:sketch="http://www.bohemiancoding.com/sketch/ns">
    <!-- Generator: Sketch 3.3.2 (12043) - http://www.bohemiancoding.com/sketch -->
    <title>google</title>
    <desc>Created with Sketch.</desc>
    <defs>
        <linearGradient x1="31.4841646%" y1="-20.6909691%" x2="61.6094396%" y2="86.1408826%" id="linearGradient-1">
            <stop stop-color="#19A3B4" offset="0%"></stop>
            <stop stop-color="#5BC3AF" offset="34.816763%"></stop>
            <stop stop-color="#C9F7A6" offset="92.2336229%"></stop>
            <stop stop-color="#D7FEA5" offset="100%"></stop>
        </linearGradient>
        <linearGradient x1="99.464054%" y1="22.1624275%" x2="23.5123063%" y2="113.347015%" id="linearGradient-2">
            <stop stop-color="#FC472E" offset="0%"></stop>
            <stop stop-color="#FC472E" offset="0.331892433%"></stop>
            <stop stop-color="#893CD8" offset="100%"></stop>
        </linearGradient>
    </defs>
    <g id="Page-1" stroke="none" stroke-width="1" fill="none" fill-rule="evenodd" sketch:type="MSPage">
        <g id="google" sketch:type="MSArtboardGroup">
            <g id="icon-playstore" sketch:type="MSLayerGroup" transform="translate(2.000000, 0.000000)">
                <g id="Page-1" sketch:type="MSShapeGroup">
                    <g id="Group">
                        <g id="mask-3" transform="translate(2.000000, 0.500000)" fill-opacity="0.330870697" fill="#A2A2A2">
                            <path d="M28.6078062,15.1442491 L2.27553101,0.452837387 C1.52889247,0.038342223 0.84025726,-0.0580811233 0.28243805,0.118486303 L21.8510359,22.0015769 L28.6078062,15.1442491" id="path-2"></path>
                        </g>
                        <g id="Fill-1" transform="translate(2.000000, 0.500000)" fill-opacity="0.330870697" fill="#A2A2A2">
                            <path d="M28.6078062,15.1442491 L2.27553101,0.452837387 C1.52889247,0.038342223 0.84025726,-0.0580811233 0.28243805,0.118486303 L21.8510359,22.0015769 L28.6078062,15.1442491" id="path-2"></path>
                        </g>
                        <path d="M30.6423613,29.3927155 L39.6316425,24.3774493 C41.4544278,23.3568645 41.4544278,21.6963794 39.6316425,20.6782991 L30.6090403,15.6442491 L23.8510359,22.5015769 L30.6423613,29.3927155" id="Fill-2" fill-opacity="0.330870697" fill="#070707"></path>
                        <g id="mask-7" transform="translate(0.000000, 0.500000)" fill-opacity="0.330870697" fill="#A2A2A2" opacity="0.602145522">
                            <path d="M2.28120394,0.118486303 C1.48026442,0.372693307 0.961936837,1.19542238 0.961936837,2.44016012 L0.96687329,41.6155882 C0.96687329,42.8465512 1.4691574,43.6567578 2.24664877,43.9272441 L23.8510359,22.0053337 L2.28120394,0.118486303" id="path-6"></path>
                        </g>
                        <path d="M0.961936837,2.94016012 L0.96687329,42.1155882 C0.96687329,43.3465512 1.4691574,44.1567578 2.24664877,44.4272441 L23.8510359,22.5053337 L2.28120394,0.618486303 C1.48026442,0.872693307 0.961936837,1.69542238 0.961936837,2.94016012 L0.961936837,2.94016012 Z" id="path-6" fill-opacity="0.330870697" fill="#A2A2A2"></path>
                        <g id="mask-10" transform="translate(2.000000, 22.500000)" fill-opacity="0.330870697" fill="#A2A2A2">
                            <path d="M0.24664877,21.9272441 C0.80817031,22.1200908 1.51038077,22.0299287 2.27553101,21.6041632 L28.638659,6.8927155 L21.8510359,0.0053337 L0.24664877,21.9272441" id="path-9"></path>
                        </g>
                        <g id="Fill-4" transform="translate(2.000000, 22.500000)" fill="#A2A2A2">
                            <path d="M0.24664877,21.9272441 C0.80817031,22.1200908 1.51038077,22.0299287 2.27553101,21.6041632 L28.638659,6.8927155 L21.8510359,0.0053337 L0.24664877,21.9272441" id="path-9"></path>
                        </g>
                    </g>
                </g>
            </g>
        </g>
    </g>
</svg>