<?xml version="1.0" encoding="utf-8"?>
<!-- Generator: Adobe Illustrator 18.1.1, SVG Export Plug-In . SVG Version: 6.00 Build 0)  -->
<svg version="1.1" id="Layer_1" xmlns="http://www.w3.org/2000/svg" xmlns:xlink="http://www.w3.org/1999/xlink" x="0px" y="0px"
	 viewBox="0 0 203.4 90.3" enable-background="new 0 0 203.4 90.3" xml:space="preserve">
<g>
	<path fill="#FFFFFF" d="M109.6,6h-6.3c-2.1,0-4.4-0.9-6.7-0.9C79.7,5.1,65.8,23.9,65.8,47C65.8,68.1,77,85.5,92,88.4V89h17.6
		c16.9,0,30.7-18.4,30.7-41.5C140.3,24.4,126.5,6,109.6,6z"/>
	<path fill="#D0D7DD" d="M103.1,6.1C89.3,10.2,78.9,26.9,78.9,47c0,20.1,10.4,36.8,24.2,40.9c13.8-4.1,24.2-20.8,24.2-40.9
		C127.3,26.9,116.9,10.2,103.1,6.1z"/>
	<path id="Bitcoin_1_" fill="#3B5163" d="M105.7,46c0.8-1.1,1.3-2.4,1.3-3.9c0-4.7-2.5-7.6-6.6-7.6h0l0-5.7c0-0.2-0.1-0.4-0.3-0.4
		h-2c-0.2,0-0.3,0.2-0.3,0.4v5.7h-2.6l0-5.7c0-0.2-0.1-0.4-0.3-0.4h-2c-0.2,0-0.3,0.2-0.3,0.4v5.7l-5.6,0c-0.2,0-0.3,0.2-0.3,0.4
		v2.3c0,0.2,0.2,0.4,0.3,0.4h0.3c1.5,0,2.6,1.4,2.6,3l0,12.1c0,1.6-1.3,2.9-2.7,3c-0.1,0-0.3,0.1-0.3,0.3l-0.2,2.3
		c0,0.1,0,0.2,0.1,0.3c0.1,0.1,0.2,0.1,0.3,0.1h5.5v5.7c0,0.2,0.1,0.4,0.3,0.4h2c0.2,0,0.3-0.2,0.3-0.4l0-5.7h2.6v5.7
		c0,0.2,0.1,0.4,0.3,0.4h2c0.2,0,0.3-0.2,0.3-0.4l0-5.7h1.3c4.1,0,6.6-2.8,6.6-7.6C108.3,49,107.2,47.1,105.7,46z M95.1,39.1h4
		c1.5,0,2.6,1.4,2.6,3c0,1.7-1.2,3-2.6,3h-4V39.1z M100.4,54.2h-5.3v-6.1h5.3c1.5,0,2.6,1.4,2.6,3C103,52.9,101.8,54.2,100.4,54.2z"
		/>
	<path fill="#3B5163" d="M96.3,10C96.3,10,96.2,10,96.3,10C96.2,10,96.2,10,96.3,10C96.2,10,96.2,10,96.3,10c-0.6,0-1.1,0.4-1.1,1
		c0,0.6,0.4,1,1,1c0,0,0,0,0,0h0c0.6,0,1-0.4,1-1C97.3,10.4,96.8,10,96.3,10C96.3,10,96.3,10,96.3,10L96.3,10z M90.6,10.6
		c-0.1,0-0.2,0-0.3,0.1c0,0,0,0,0,0c0,0,0,0,0,0c0,0,0,0,0,0c-0.5,0.2-0.8,0.7-0.6,1.3c0.1,0.4,0.5,0.7,0.9,0.7c0.1,0,0.2,0,0.3-0.1
		l0,0c0.5-0.2,0.8-0.7,0.6-1.3C91.4,10.9,91,10.6,90.6,10.6L90.6,10.6z M85.5,13.2c-0.2,0-0.4,0.1-0.6,0.2c0,0,0,0,0,0c0,0,0,0,0,0
		c-0.5,0.3-0.6,0.9-0.3,1.4c0.2,0.3,0.5,0.4,0.8,0.4c0.2,0,0.4-0.1,0.6-0.2l0,0c0.5-0.3,0.6-0.9,0.3-1.4
		C86.1,13.4,85.8,13.2,85.5,13.2L85.5,13.2z M81.1,17.1c-0.3,0-0.5,0.1-0.7,0.3c0,0,0,0,0,0c0,0,0,0,0,0c-0.4,0.4-0.3,1,0.1,1.4
		c0.2,0.2,0.4,0.3,0.7,0.3c0.3,0,0.5-0.1,0.7-0.3l0,0c0.4-0.4,0.3-1-0.1-1.4C81.6,17.2,81.4,17.1,81.1,17.1L81.1,17.1z M78.5,23.3
		c0.3-0.5,0.1-1.1-0.3-1.4c-0.2-0.1-0.3-0.2-0.5-0.2l0,0c-0.3,0-0.7,0.2-0.9,0.5c0,0,0,0,0,0c0,0,0,0,0,0c-0.3,0.5-0.1,1.1,0.3,1.4
		c0.2,0.1,0.3,0.1,0.5,0.1 M104.7,79.7c-0.2,0-0.3,0-0.5,0.1l0,0c-0.5,0.3-0.7,0.9-0.4,1.3c0.2,0.3,0.5,0.5,0.9,0.5
		c0.2,0,0.3,0,0.5-0.1c0,0,0,0,0,0c0,0,0,0,0,0c0.5-0.3,0.7-0.9,0.4-1.3C105.4,79.9,105,79.7,104.7,79.7L104.7,79.7z M109.4,76.4
		c-0.2,0-0.5,0.1-0.7,0.3l0,0c-0.4,0.4-0.4,1-0.1,1.4c0.2,0.2,0.5,0.3,0.7,0.3c0.2,0,0.5-0.1,0.7-0.3c0,0,0-0.1,0-0.1
		c0,0,0-0.1,0-0.1c0,0,0,0,0,0c0,0,0,0.1,0,0.1c0.4-0.4,0.4-1,0.1-1.4C109.9,76.5,109.7,76.4,109.4,76.4L109.4,76.4z M113.3,72.1
		c-0.3,0-0.6,0.1-0.8,0.4l0,0c-0.3,0.4-0.2,1.1,0.2,1.4c0.2,0.1,0.4,0.2,0.6,0.2c0.3,0,0.6-0.1,0.8-0.4c0,0,0,0,0,0
		c0.3-0.4,0.2-1.1-0.2-1.4C113.7,72.2,113.5,72.1,113.3,72.1L113.3,72.1z M116.4,67.1c-0.4,0-0.7,0.2-0.9,0.5l0,0
		c-0.3,0.5-0.1,1.1,0.4,1.3c0.1,0.1,0.3,0.1,0.5,0.1c0.4,0,0.7-0.2,0.9-0.5c0,0,0,0,0,0c0,0,0,0,0,0c0.2-0.5,0.1-1.1-0.4-1.3
		C116.7,67.1,116.6,67.1,116.4,67.1L116.4,67.1z M118.7,61.7c-0.4,0-0.8,0.3-0.9,0.7l0,0c-0.2,0.5,0.1,1.1,0.6,1.3
		c0.1,0,0.2,0.1,0.3,0.1c0.4,0,0.8-0.3,0.9-0.7c0,0,0,0,0,0c0,0,0,0,0,0c0.2-0.5-0.1-1.1-0.6-1.3C118.9,61.7,118.8,61.7,118.7,61.7
		L118.7,61.7z M120.2,55.9c-0.5,0-0.9,0.3-1,0.8l0,0.1c-0.1,0.5,0.2,1.1,0.8,1.2c0.1,0,0.1,0,0.2,0c0.5,0,0.9-0.3,1-0.8c0,0,0,0,0,0
		c0,0,0,0,0,0c0,0,0,0,0,0c0.1-0.5-0.2-1.1-0.8-1.2C120.4,55.9,120.3,55.9,120.2,55.9L120.2,55.9z M121.1,50.1c-0.5,0-1,0.4-1,0.9
		l0,0.1c0,0.6,0.4,1,0.9,1.1c0,0,0,0,0,0c0.5,0,1-0.4,1-0.9c0,0,0,0,0,0c0,0,0,0,0,0C122.1,50.6,121.7,50.1,121.1,50.1
		C121.1,50.1,121.1,50.1,121.1,50.1L121.1,50.1z M121.2,44C121.2,44,121.2,44,121.2,44c-0.6,0-1,0.5-1,1.1l0,0c0,0.5,0.5,0.9,1,0.9
		c0,0,0,0,0,0c0.6,0,1-0.4,1-0.9c0,0,0-0.1,0-0.1C122.2,44.4,121.8,44,121.2,44L121.2,44z M120.7,38.2c0,0-0.1,0-0.1,0
		c-0.5,0.1-0.9,0.6-0.8,1.1l0,0.1c0.1,0.5,0.5,0.9,1,0.9c0,0,0.1,0,0.1,0c0.5-0.1,0.9-0.6,0.8-1.1c0,0,0,0,0,0c0,0,0,0,0,0
		C121.6,38.6,121.2,38.2,120.7,38.2L120.7,38.2z M119.5,32.4c-0.1,0-0.2,0-0.3,0c-0.5,0.1-0.8,0.7-0.7,1.2l0,0.1
		c0.1,0.4,0.5,0.7,1,0.7c0.1,0,0.2,0,0.3,0c0.5-0.1,0.6-0.7,0.5-1.2c0,0-0.2,0-0.2,0v0c0,0,0.3-0.2,0.3-0.2h0c0,0,0,0.1,0,0.1
		C120.3,32.6,119.9,32.4,119.5,32.4L119.5,32.4z M117.5,26.8c-0.1,0-0.3,0-0.4,0.1c-0.5,0.2-0.7,0.8-0.5,1.3l0,0
		c0.2,0.4,0.5,0.6,0.9,0.6c0.1,0,0.3,0,0.4-0.1c0.5-0.2,0.7-0.8,0.5-1.3c0,0,0,0,0,0c0,0,0,0,0,0C118.3,27.1,117.9,26.8,117.5,26.8
		L117.5,26.8z M114.8,21.6c-0.2,0-0.4,0-0.5,0.2c-0.5,0.3-0.6,0.9-0.3,1.4l0,0c0.2,0.3,0.5,0.5,0.8,0.5c0.2,0,0.4,0,0.5-0.2
		c0.5-0.3,0.6-0.9,0.3-1.4c0,0,0,0,0,0c0,0,0,0,0,0C115.4,21.8,115.1,21.6,114.8,21.6L114.8,21.6z M111.2,16.9
		c-0.2,0-0.5,0.1-0.7,0.3c-0.4,0.4-0.4,1-0.1,1.4l0,0c0.2,0.2,0.5,0.3,0.7,0.3c0.2,0,0.5-0.1,0.7-0.3c0.4-0.4,0.4-1,0.1-1.4
		c0,0,0,0,0,0C111.8,17,111.5,16.9,111.2,16.9L111.2,16.9z M106.9,13.1c-0.3,0-0.6,0.2-0.8,0.4c-0.3,0.5-0.2,1.1,0.3,1.4l0,0
		c0.2,0.1,0.4,0.2,0.6,0.2c0.3,0,0.6-0.2,0.8-0.4c0.3-0.5,0.2-1.1-0.3-1.4c0,0,0,0,0,0c0,0,0,0,0,0C107.2,13.2,107,13.1,106.9,13.1
		L106.9,13.1z M101.7,10.6c-0.4,0-0.8,0.3-1,0.7c-0.2,0.5,0.1,1.1,0.6,1.3l0,0c0.1,0,0.2,0,0.3,0c0.4,0,0.8-0.3,1-0.7
		c0.2-0.5-0.1-1.1-0.6-1.3c0,0,0,0,0,0c0,0,0,0,0,0c0,0,0,0,0,0C101.9,10.6,101.8,10.6,101.7,10.6L101.7,10.6z"/>
	<path fill="#3B5163" d="M202.5,66.9c0.1-7.8,0.4-12.2,0.9-18.7c-3.3,0.3-7.2,0.4-14.2,0.4c0,0,0.3-43.2,0.6-46.7L167.4,0
		l-26.8,36.5c-1.1-5.6-2.6-10.7-5.6-15.2V21h0.2c-5.9-10-15.5-16.9-26-16.9L99,3.8v0c-1-0.1-1.6-0.2-2.5-0.2
		C78.7,3.7,64.4,23.1,64.4,47c0,0.5,0,1,0.1,1.5c-1.4,0-2.8,0-5.2,0c0,0,0.3-43.2,0.6-46.7L37.4,0L0,50.8l1.6,16
		c6.8-0.4,34.7-0.7,34.7-0.7s0,17.9-0.7,21.9h24.5c-0.3-3-0.8-21.4-0.8-21.4c3.4,0,6.3,0.1,8.7,0.2c5.3,14,16.2,23.6,28.6,23.6
		c0.9,0,13-0.2,13-0.2c12.5,0,23.3-9.7,28.7-23.6c6.1-0.2,28-0.4,28-0.4s0,17.9-0.7,21.9h24.5c-0.3-3-0.8-21.4-0.8-21.4
		C195.3,66.6,199.5,66.8,202.5,66.9z M37.4,50H21.5L38,27.2L37.4,50z M136,30c0.3,1,0.6,2,0.9,3h-9.8c-0.3-1-0.5-2-0.8-3H136z
		 M130.1,51h-1.5c0.1-1,0.1-2,0.1-3h3.3l-2,2.6L130.1,51z M130.4,54l0.3,3h-2.8c0.2-1,0.3-2,0.5-3H130.4z M130.9,60l0.3,3h-4.8
		c0.3-1,0.6-2,0.8-3H130.9z M134.8,27h-9.7c-0.4-1-0.8-2-1.3-3h9.5C133.9,25,134.4,26,134.8,27z M129.6,18c0.7,1,1.4,2,2.1,3h-9.3
		c-0.6-1-1.2-2-1.8-3H129.6z M127.1,15h-8.7c-0.9-1-1.8-2-2.7-3h8C124.9,13,126,14,127.1,15z M109.6,7.1c3.2,0,6.2,0.9,9.1,1.9h-6.4
		c-1-1-2-1.4-3-2L109.6,7.1z M67.4,47c0-22.2,13-40.3,29-40.3c5.3,0,10.5,2,14.5,5.5V12h0.3c8.7,7,14.5,20.1,14.5,34.9
		c0,22.2-13.1,40.4-29.2,40.4S67.4,69.2,67.4,47z M109.6,87h-0.9c1.6-1,3.4-1.7,4.4-2.9V84h7.7C117.2,86,113.5,87,109.6,87z
		 M124.9,81h-8.6c0.9-1,1.7-2,2.6-3h9.1C127,79,126,80,124.9,81z M130.4,75H121c0.6-1,1.2-2,1.7-3h9.6C131.7,73,131.1,74,130.4,75z
		 M133.9,69h-9.7c0.4-1,0.8-2,1.2-3h6.1l0.1,0.8c1-0.1,2.2-0.2,3.4-0.2C134.7,67.5,134.3,68,133.9,69z M134.2,45h-5.5
		c0-1-0.1-2-0.2-3h7.9L134.2,45z M128.2,39c-0.1-1-0.3-2-0.5-3h9.9c0.2,1,0.4,2,0.5,3H128.2z M167.4,50h-15.9L168,27.2L167.4,50z"/>
	<circle fill="#3B5163" cx="99.6" cy="82.8" r="1"/>
	<circle fill="#3B5163" cx="93.6" cy="82.8" r="1"/>
	<circle fill="#3B5163" cx="87.6" cy="80.8" r="1"/>
	<circle fill="#3B5163" cx="83.6" cy="77.8" r="1"/>
	<circle fill="#3B5163" cx="79.6" cy="73.8" r="1"/>
	<circle fill="#3B5163" cx="76.6" cy="68.8" r="1"/>
	<circle fill="#3B5163" cx="73.6" cy="62.8" r="1"/>
	<circle fill="#3B5163" cx="72.6" cy="56.8" r="1"/>
	<circle fill="#3B5163" cx="71.6" cy="51.8" r="1"/>
	<circle fill="#3B5163" cx="71.6" cy="44.8" r="1"/>
	<circle fill="#3B5163" cx="71.6" cy="39.8" r="1"/>
	<circle fill="#3B5163" cx="72.6" cy="33.8" r="1"/>
	<circle fill="#3B5163" cx="74.6" cy="27.8" r="1"/>
</g>
</svg>
