<?xml version="1.0" encoding="utf-8"?>
<!-- Generator: Adobe Illustrator 18.1.1, SVG Export Plug-In . SVG Version: 6.00 Build 0)  -->
<!DOCTYPE svg PUBLIC "-//W3C//DTD SVG 1.1//EN" "http://www.w3.org/Graphics/SVG/1.1/DTD/svg11.dtd">
<svg version="1.1" id="Layer_1" xmlns="http://www.w3.org/2000/svg" xmlns:xlink="http://www.w3.org/1999/xlink" x="0px" y="0px"
	 viewBox="0 0 47.1 46.3" enable-background="new 0 0 47.1 46.3" xml:space="preserve">
<g>
	<circle fill="none" stroke="#3B5062" stroke-width="2" stroke-miterlimit="10" cx="24.2" cy="22.9" r="20.3"/>
	<line fill="none" stroke="#3B5062" stroke-width="2" stroke-miterlimit="10" x1="3.9" y1="22.9" x2="44.5" y2="22.9"/>
	<line fill="none" stroke="#3B5062" stroke-width="2" stroke-miterlimit="10" x1="24.2" y1="2.6" x2="24.2" y2="43.3"/>
	<g>
		<path fill="none" stroke="#3B5062" stroke-width="2" stroke-miterlimit="10" d="M24.1,43.1c-6.5-4.4-10.8-11.9-10.8-20.3
			C13.3,14.4,17.5,7,24,2.6"/>
		<path fill="none" stroke="#3B5062" stroke-width="2" stroke-miterlimit="10" d="M24.3,43.1c6.5-4.4,10.8-11.9,10.8-20.3
			c0-8.4-4.2-15.8-10.6-20.2"/>
	</g>
	<path fill="none" stroke="#3B5062" stroke-width="2" stroke-miterlimit="10" d="M37.4,7.6c-3,4-7.8,6.5-13.1,6.5
		c-5.4,0-10.2-2.6-13.2-6.6"/>
	<path fill="none" stroke="#3B5062" stroke-width="2" stroke-miterlimit="10" d="M37.4,39c-3-4-7.8-6.5-13.1-6.5
		c-5.4,0-10.2,2.6-13.2,6.6"/>
	<g>
		<circle fill="#FFFFFF" stroke="#3B5062" stroke-width="2" stroke-miterlimit="10" cx="33.3" cy="33.9" r="9.4"/>
		<path fill="#D0D7DD" d="M27.3,36.1c0,2.5,1.1,4.8,2.8,6.4c0.9,0.3,1.9,0.4,2.9,0.4c5.2,0,9.4-4.2,9.4-9.4c0-1.9-0.6-3.6-1.5-5.1
			c-1.4-0.8-2.9-1.3-4.6-1.3C31.3,27.2,27.3,31.2,27.3,36.1z"/>
		<circle fill="none" stroke="#3B5062" stroke-width="2" stroke-miterlimit="10" cx="33.3" cy="33.9" r="9.4"/>
	</g>
	<text transform="matrix(1 0 0 1 30.2555 37.3966)" fill="#3B5062" font-family="'MyriadPro-Regular'" font-size="12">$</text>
</g>
</svg>
