<?xml version="1.0" encoding="utf-8"?>
<!-- Generator: Adobe Illustrator 18.1.1, SVG Export Plug-In . SVG Version: 6.00 Build 0)  -->
<!DOCTYPE svg PUBLIC "-//W3C//DTD SVG 1.1//EN" "http://www.w3.org/Graphics/SVG/1.1/DTD/svg11.dtd">
<svg version="1.1" id="Layer_1" xmlns="http://www.w3.org/2000/svg" xmlns:xlink="http://www.w3.org/1999/xlink" x="0px" y="0px"
	 viewBox="0 0 47.1 46.3" enable-background="new 0 0 47.1 46.3" xml:space="preserve">
<g>
	<path fill="none" stroke="#3B5062" stroke-width="2" stroke-miterlimit="10" d="M36,43.7H11.2c-1.5,0-2.7-1.2-2.7-2.7V17.4h30.2
		v23.7C38.7,42.5,37.5,43.7,36,43.7z"/>
	<path fill="#FFFFFF" stroke="#3B5062" stroke-width="2" stroke-miterlimit="10" d="M36,19.7H11.2c-1.5,0-2.7-1.2-2.7-2.7v0
		c0-1.5,1.2-2.7,2.7-2.7H36c1.5,0,2.7,1.2,2.7,2.7v0C38.7,18.5,37.5,19.7,36,19.7z"/>
	<path fill="none" stroke="#3B5062" stroke-width="2" stroke-miterlimit="10" d="M38.7,36.7H26.8c-2.5,0-4.6-2.1-4.6-4.6v0
		c0-2.5,2.1-4.6,4.6-4.6h11.9V36.7z"/>
	<circle fill="none" stroke="#3B5062" stroke-width="2" stroke-miterlimit="10" cx="27.6" cy="32.1" r="1.2"/>
	<polygon fill="#FFFFFF" stroke="#3B5062" stroke-width="2" stroke-miterlimit="10" points="28.6,6.3 28.6,3 18.6,3 18.6,6.3 
		11.6,6.3 23.6,17.5 35.6,6.3 	"/>
	<polygon fill="#D0D7DD" points="23.8,17.4 35.3,6.5 18,11.6 	"/>
	<polygon fill="none" stroke="#3B5062" stroke-width="2" stroke-miterlimit="10" points="28.6,6.3 28.6,3 18.6,3 18.6,6.3 11.6,6.3 
		23.6,17.5 35.6,6.3 	"/>
</g>
</svg>
