<?xml version="1.0" encoding="UTF-8" standalone="no"?>
<svg width="58px" height="25px" viewBox="0 0 58 25" version="1.1" xmlns="http://www.w3.org/2000/svg" xmlns:xlink="http://www.w3.org/1999/xlink" xmlns:sketch="http://www.bohemiancoding.com/sketch/ns">
    <!-- Generator: Sketch 3.3.2 (12043) - http://www.bohemiancoding.com/sketch -->
    <title>download 3 copy 2</title>
    <desc>Created with Sketch.</desc>
    <defs></defs>
    <g id="Page-1" stroke="none" stroke-width="1" fill="none" fill-rule="evenodd" sketch:type="MSPage">
        <g id="download-3-copy-2" sketch:type="MSLayerGroup" fill="#2C3E50">
            <path d="M56.3739205,2.99284077 C55.9671933,3.03843396 55.5374438,3.12962034 55.076998,3.27399877 C54.9311901,3.31959196 54.8007305,3.41077834 54.6779449,3.53236018 C54.5551594,3.66154089 54.4553961,3.76032613 54.3786551,3.84391365 C54.3019141,3.92750116 54.2251732,4.07187959 54.1407581,4.28464781 C54.056343,4.49741603 53.9949502,4.6569922 53.9565798,4.77857404 C53.9182093,4.89255701 53.8568165,5.11292409 53.7724014,5.43207642 C53.6803122,5.75122875 53.6189195,5.99439243 53.5652008,6.16156746 C53.2045182,7.36978699 52.6289609,8.59320425 51.8462029,9.84701697 C51.063445,11.1008297 50.3804503,11.7543321 49.7972189,11.815123 C49.490255,11.8455185 49.3060766,11.5947559 49.2446839,11.0476376 C49.1295724,10.0217909 49.3444471,8.72998382 49.8662858,7.16461764 C50.3957985,5.59925145 50.9560076,4.49741603 51.5622613,3.85151251 C51.6466764,3.7451284 51.692721,3.66154089 51.6850469,3.5931511 C51.6773728,3.53236018 51.6390023,3.50196472 51.5776095,3.50956359 C50.7181106,3.60074997 50.0504641,3.77552386 49.5746701,4.04148413 C49.098876,4.29984554 48.6768007,4.81656836 48.2854217,5.59165259 C47.9861319,6.19196292 47.7328867,6.93665169 47.5103378,7.84091662 C46.420616,10.4321296 45.4306574,11.7771287 44.5404621,11.8683151 C44.2488464,11.8987105 44.0800162,11.7087389 44.0339716,11.2908013 C43.9495566,10.4929205 44.1951277,9.17071799 44.7860332,7.33179267 C45.3769387,5.49286734 45.9141255,4.330241 46.4052678,3.84391365 L46.1596967,3.86671024 L44.9395152,3.97309435 C44.6172031,4.01108867 44.2795428,4.1782637 43.9342084,4.48981717 C43.588874,4.80137063 43.350977,5.15091842 43.2128432,5.53846053 C43.0133167,5.04453431 42.6679823,4.70258539 42.1921882,4.52021263 C41.7087201,4.33783987 41.2099038,4.26945008 40.6957392,4.330241 C39.5906692,4.45182284 38.6237329,4.9609468 37.7795822,5.87281059 C36.9431055,6.77707552 36.3368518,7.84091662 35.9684951,9.04153728 C35.960821,9.06433388 35.9531469,9.08713047 35.9454728,9.10992707 C35.8917542,9.23150891 35.8226873,9.36828848 35.7612945,9.51266691 C35.3468932,10.409333 35.0245811,11.0476376 34.7866841,11.4275809 C34.3492606,12.1190776 33.8197478,12.77258 33.1904718,13.3728903 C32.5611958,13.9732006 31.9088975,14.3151496 31.2412511,14.3835394 L31.0493986,14.406336 C32.0316831,13.5856585 32.8374633,12.4990208 33.4744134,11.1312251 C34.1113635,9.76342946 34.3646088,8.47922128 34.2341491,7.25580402 C34.072993,5.78162421 33.4513911,5.10532523 32.3616693,5.2193082 C31.2105547,5.34089004 29.9826991,6.48071979 28.6934507,8.62359971 C29.3304008,6.93665169 29.8675876,5.90320605 30.3050112,5.53846053 L29.5759719,5.61444918 C28.6167097,5.71323443 27.9644114,5.9791947 27.619077,6.40473114 C27.4502469,6.63269709 27.2046758,7.26340288 26.905386,8.30444738 C26.7979486,8.67679177 26.6521407,9.22391004 26.4602883,9.93820335 C25.884731,11.2452081 25.2017363,11.9367048 24.4113043,12.0202924 C23.9585325,12.0658855 23.5901758,11.9367048 23.3062342,11.6251514 C23.5518053,10.7360842 23.6362204,9.91540675 23.5518053,9.14032253 C23.3292565,7.11902445 22.2548828,6.21475952 20.3210103,6.41992887 C19.1698956,6.54151071 18.1645889,7.03543693 17.312764,7.9093064 C16.7985995,8.43362809 16.3765241,9.00354296 16.054212,9.61905102 C16.054212,9.61145216 16.0618861,9.60385329 16.0618861,9.59625443 C15.2791282,11.0476376 13.928487,13.5704608 12.2325115,15.0142451 C10.5365359,16.4580295 8.86358265,17.271108 7.22132578,17.4458819 C4.58911032,17.7270399 3.1156836,16.4428318 2.8087197,13.5932574 C2.60919316,11.7543321 2.89313477,9.8850113 3.66821862,8.00049278 C4.44330247,6.10837541 5.55604661,4.52021263 7.00645105,3.23600445 C8.45685548,1.95179627 10.0146973,1.21470637 11.6723023,1.03233361 C12.9231802,0.895554037 13.5985008,1.29829388 13.6982641,2.22535541 C13.767331,2.8332646 13.5524562,3.38038288 13.061314,3.8743091 C12.5701718,4.36063646 12.0099626,4.64179447 11.3806866,4.71018425 C11.1504637,4.73298085 10.9432631,4.72538198 10.7590847,4.67978879 C10.5902546,4.97614453 10.5211877,5.2421048 10.5518841,5.47766961 C10.5749064,5.72083329 10.7130402,5.90320605 10.9586113,6.03238676 C11.2041824,6.16156746 11.5034722,6.20716065 11.8641548,6.16916633 C12.6238904,6.08557881 13.3375815,5.78162421 13.9975539,5.25730253 C14.6575263,4.73298085 15.0796017,4.13267051 15.26378,3.4411738 C15.3558692,3.07642828 15.3865656,2.74967709 15.3558692,2.46092022 C15.2714541,1.67823713 14.8033341,1.07032793 13.9515093,0.652390358 C13.0996845,0.234452785 11.9255476,0.105272081 10.4367726,0.264848245 C8.94032363,0.424424409 7.474571,0.986740417 6.02416656,1.95179627 C4.57376213,2.91685212 3.4072993,4.07187959 2.52477809,5.42447756 C1.63458277,6.77707552 0.974610387,8.20566214 0.52951273,9.71783627 C0.0844150729,11.2300104 -0.0613927803,12.6509981 0.0844150729,13.9807995 C0.46811995,17.4914751 2.56314858,19.0416436 6.38484915,18.6313049 C8.02710602,18.456531 9.60029601,17.9702036 11.1044191,17.1647239 C12.6085422,16.3668431 13.8287238,15.3713918 14.7496155,14.2011666 C14.8954233,14.011195 15.025883,13.8288222 15.1563426,13.6540483 C15.1640167,13.7908279 15.1716908,13.9200086 15.187039,14.0567882 C15.2944764,15.0598383 15.6321367,15.7741316 16.2000199,16.2072669 C16.7679031,16.6404023 17.4508978,16.8151761 18.2643521,16.7239898 C19.5305782,16.5872102 20.5282109,16.146476 21.2649243,15.4093861 C22.0016376,14.6722962 22.5925431,13.6920426 23.052989,12.4990208 C23.4750644,12.7649811 23.9585325,12.8637664 24.5033934,12.8029754 C24.9715134,12.7497834 25.4473074,12.5142186 25.9384497,12.0810833 C25.7005526,13.0461391 25.4319592,14.1631723 25.1249953,15.4473805 C24.2348,19.1784232 23.6131981,21.3744951 23.2525155,22.0279975 L24.4189783,21.9064157 C24.7412904,21.8684214 25.0098839,21.8000316 25.2094104,21.7012463 C25.4089369,21.5948622 25.5854412,21.3972917 25.7235749,21.100936 C25.8617087,20.8045803 26.045887,20.1662756 26.2684359,19.186022 L27.1739794,14.8394713 C27.457921,15.6069566 28.3711386,15.9033124 29.9366545,15.7361373 C31.4944963,15.5689623 32.7914188,14.9382565 33.8197478,13.8364211 C34.4566979,13.1601221 35.0399293,12.3318458 35.5847903,11.36679 C35.5694421,11.7543321 35.5847903,12.1418742 35.6231607,12.5294163 C35.7843168,14.0035961 36.4059187,14.6798951 37.4956405,14.5659121 C39.0688305,14.3987371 40.6113241,12.5978061 42.1077732,9.16311912 C41.8698761,10.1585704 41.8084834,11.1540217 41.9159207,12.1494731 C42.0617286,13.4792744 42.568219,14.0947825 43.4507402,14.0035961 C44.5788326,13.8820143 45.8066882,12.5750095 47.134307,10.0901806 C47.0652402,10.6828921 47.049892,11.1768183 47.0882625,11.5643605 C47.1496552,12.2330606 47.3338336,12.7193879 47.6331234,13.0385403 C47.9324132,13.3576926 48.2930958,13.4868733 48.7228452,13.4412801 C49.1525947,13.3956869 49.5209514,13.3045005 49.8279153,13.1753198 C50.1348792,13.0461391 50.5416064,12.7117891 51.0480968,12.1798685 C51.5545872,11.647948 52.1378186,10.8652649 52.8054651,9.83941811 L51.8155065,13.6388506 C51.1785564,16.0552896 50.196272,17.3394978 48.8840013,17.4762774 C48.546341,17.5142717 48.2547253,17.4534808 48.0168283,17.2863058 C47.7789312,17.1267296 47.6407975,16.8911648 47.6101011,16.5872102 C47.5487083,16.0096965 47.6561457,15.6601487 47.9400873,15.530968 C47.840324,15.3789907 47.6868421,15.24981 47.4796414,15.1434259 C47.2724408,15.0370417 47.0268697,14.9990474 46.7429281,15.0294429 C46.4589865,15.0598383 46.2210894,15.2270134 46.0369111,15.530968 C45.8450587,15.8349226 45.7759918,16.1616738 45.8143623,16.5188204 C45.8911032,17.1951194 46.2287635,17.6510513 46.8426913,17.9018138 C47.4566191,18.1525764 48.1626361,18.2361639 48.9760905,18.1449775 C49.7895448,18.06139 50.5723027,17.7726331 51.3243643,17.3015035 C52.0764259,16.822775 52.6826796,16.2300635 53.1507995,15.5157702 C53.6189195,14.8014769 53.9872761,13.8592177 54.2712178,12.6965913 C54.3786551,12.3090492 54.5091148,11.7695298 54.6702708,11.0628354 C54.8314269,10.3561409 54.9388642,9.91540675 54.9772347,9.733034 C55.0232793,9.55066124 55.1460649,9.03393842 55.3532655,8.17526668 C55.552792,7.31659494 55.8137114,6.36673681 56.1283494,5.31049458 C56.5197283,4.05668186 56.9494778,3.24360331 57.4175977,2.88645666 L56.3739205,2.99284077 L56.3739205,2.99284077 Z M22.185816,8.63879744 C21.7790888,8.68439063 21.4721249,8.84396679 21.2649243,9.1251248 C21.0577236,9.4062828 20.9733086,9.76342946 21.0270272,10.1965648 C21.1037682,10.9032592 21.4414285,11.4579763 22.0476822,11.8607162 C21.7407183,12.7877777 21.326317,13.6464495 20.8121525,14.4367314 C20.297988,15.2270134 19.6917343,15.6601487 18.9933914,15.7361373 C18.1415666,15.7817305 17.6657725,15.3181997 17.5583352,14.3607428 C17.4508978,13.4032858 17.627402,12.2938515 18.0878479,11.0476376 C18.9243245,8.78317587 19.906609,7.59775294 21.0270272,7.4761711 C21.7407183,7.40018245 22.1781419,7.7801257 22.3316238,8.62359971 L22.185816,8.63879744 L22.185816,8.63879744 Z M28.3864868,14.8318724 C27.9183668,14.8850644 27.6420993,14.5279178 27.5576842,13.7756302 C27.4732692,13.0233425 27.7418626,12.0126935 28.3634645,10.7512819 C28.9850664,9.48987032 29.5989942,8.56280879 30.2052479,7.97769619 C30.5736046,7.61295067 30.9342872,7.41538018 31.2719474,7.37738586 C31.3717107,7.36978699 31.4407776,7.36978699 31.4944963,7.37738586 C31.7477415,7.41538018 31.8935493,7.63574726 31.9395939,8.03848711 C32.0393572,8.96554863 31.6863487,10.3105477 30.8728944,12.0658855 C30.05944,13.8212233 29.2306375,14.740686 28.3864868,14.8318724 L28.3864868,14.8318724 Z M41.309667,9.48987032 C40.9336362,10.2421579 40.4885386,10.9108581 39.974374,11.4883718 C39.4602095,12.0658855 38.9920896,12.3850379 38.5700142,12.4306311 C38.1786352,12.4686254 37.9560864,12.2482583 37.9023677,11.7467332 C37.7795822,10.5917057 38.1402647,9.23150891 38.9844155,7.65854386 C39.8285662,6.08557881 40.7878284,5.2421048 41.862202,5.12812182 C42.4607816,5.0673309 42.8751829,5.28009912 43.0900576,5.77402535 C42.7370492,6.57190617 42.1461437,7.81052116 41.309667,9.48987032 L41.309667,9.48987032 Z" id="Shape" sketch:type="MSShapeGroup"></path>
            <path d="M23.1143818,18.0385934 C17.5813574,18.9732538 12.270882,20.2954563 8.52592236,21.8152293 C6.96040646,22.4459351 6.56902749,23.7149455 7.06016973,24.9079673 C13.4219966,22.0355964 16.5760507,21.2225178 21.2265538,20.0826881 C22.0476822,19.8775187 22.7076546,19.2696095 22.976248,18.4717287 C23.0222926,18.3197514 23.0683372,18.175373 23.1143818,18.0385934 L23.1143818,18.0385934 Z" id="Shape" sketch:type="MSShapeGroup"></path>
            <path d="M43.8190969,17.4154865 C43.980253,16.7315886 43.7960746,16.7011932 43.0900576,16.6024079 C39.2299866,16.0476908 34.9862107,16.0856851 29.8752617,17.1723228 C29.0157628,17.3546956 28.3097458,17.947407 28.171612,18.8136776 C28.171612,18.8136776 34.5871576,16.7239898 43.8190969,17.4154865 L43.8190969,17.4154865 L43.8190969,17.4154865 Z" id="Shape" sketch:type="MSShapeGroup"></path>
        </g>
    </g>
</svg>