<?xml version="1.0" encoding="UTF-8" standalone="no"?>
<svg width="102px" height="45px" viewBox="0 0 102 45" version="1.1" xmlns="http://www.w3.org/2000/svg" xmlns:xlink="http://www.w3.org/1999/xlink" xmlns:sketch="http://www.bohemiancoding.com/sketch/ns">
    <!-- Generator: Sketch 3.3.2 (12043) - http://www.bohemiancoding.com/sketch -->
    <title>download 3 copy</title>
    <desc>Created with Sketch.</desc>
    <defs></defs>
    <g id="Page-1" stroke="none" stroke-width="1" fill="none" fill-rule="evenodd" sketch:type="MSPage">
        <g id="download-3-copy" sketch:type="MSLayerGroup" fill="#FFFFFF">
            <path d="M99.6658444,5.30423472 C98.9467742,5.38503988 98.1870019,5.5466502 97.3729602,5.80253321 C97.1151803,5.88333837 96.8845351,6.04494869 96.6674573,6.26042912 C96.4503795,6.48937708 96.2740038,6.66445493 96.1383302,6.81259772 C96.0026565,6.96074052 95.8669829,7.21662353 95.7177419,7.59371428 C95.5685009,7.97080503 95.459962,8.25362309 95.3921252,8.46910352 C95.3242884,8.67111643 95.2157495,9.0616747 95.0665085,9.62731083 C94.9037002,10.192947 94.7951613,10.6239078 94.7001898,10.9201934 C94.0625237,13.0615302 93.0449715,15.229802 91.6611006,17.4519439 C90.2772296,19.6740859 89.0697343,20.8322932 88.0386148,20.9400334 C87.4959203,20.9939035 87.1703036,20.5494751 87.0617647,19.5798132 C86.8582543,17.761697 87.2381404,15.4722175 88.1607211,12.6979069 C89.0968691,9.92359642 90.0872865,7.97080503 91.1591082,6.82606525 C91.3083491,6.63751987 91.3897533,6.48937708 91.376186,6.36816934 C91.3626186,6.26042912 91.2947818,6.20655901 91.1862429,6.22002654 C89.6666983,6.38163686 88.4863378,6.69138998 87.6451613,7.16275342 C86.8039848,7.62064933 86.0577799,8.53644116 85.3658444,9.91012889 C84.8367173,10.9740635 84.3889943,12.2938811 83.9955408,13.8965168 C82.0689753,18.4889435 80.3187856,20.8726957 78.7449715,21.0343061 C78.2294118,21.0881762 77.9309298,20.751488 77.8495256,20.010774 C77.7002846,18.5966837 78.1344402,16.253334 79.1791271,12.9941925 C80.223814,9.73505105 81.1735294,7.67451944 82.0418406,6.81259772 L81.607685,6.8530003 L79.4504744,7.04154568 C78.8806452,7.10888331 78.2836812,7.4051689 77.6731499,7.9573375 C77.0626186,8.5095061 76.6420304,9.12901234 76.3978178,9.81585621 C76.0450664,8.94046696 75.4345351,8.33442825 74.5933586,8.01120761 C73.7386148,7.68798697 72.8567362,7.56677922 71.947723,7.67451944 C69.9940228,7.88999987 68.2845351,8.79232417 66.7921252,10.4084274 C65.3132827,12.0110631 64.2414611,13.8965168 63.5902277,16.0243861 C63.5766603,16.0647887 63.563093,16.1051912 63.5495256,16.1455938 C63.4545541,16.3610742 63.3324478,16.6034897 63.2239089,16.8593727 C62.4912713,18.4485409 61.9214421,19.5798132 61.5008539,20.2531895 C60.7275142,21.4787344 59.7913662,22.6369418 58.6788425,23.7008764 C57.5663188,24.764811 56.413093,25.3708497 55.2327324,25.4920574 L54.8935484,25.53246 C56.6301708,24.0779671 58.0547438,22.1521108 59.1808349,19.727956 C60.306926,17.3038011 60.754649,15.0277891 60.5240038,12.8595173 C60.2390892,10.2468171 59.1401328,9.04820718 57.2135674,9.25022008 C55.178463,9.46570051 53.007685,11.4858295 50.7283681,15.2836721 C51.8544592,12.2938811 52.8041746,10.4622975 53.5775142,9.81585621 L52.2886148,9.95053147 C50.5926945,10.1256093 49.4394687,10.5969728 48.8289374,11.3511543 C48.5304554,11.7551801 48.0962998,12.8729848 47.5671727,14.718036 C47.3772296,15.3779448 47.1194497,16.3476067 46.7802657,17.6135542 C45.7627135,19.9299689 44.5552182,21.1555138 43.1577799,21.3036566 C42.3573055,21.3844618 41.7060721,21.1555138 41.2040797,20.6033452 C41.6382353,19.0276446 41.7874763,17.5731517 41.6382353,16.1994639 C41.2447818,12.6171018 39.345351,11.0144661 35.9263757,11.3780893 C33.8912713,11.5935697 32.1139469,12.468959 30.6079696,14.0177246 C29.6989564,14.9469839 28.9527514,15.9570484 28.3829222,17.0479181 C28.3829222,17.0344506 28.3964896,17.0209831 28.3964896,17.0075155 C27.0126186,19.5798132 24.6247628,24.0510321 21.6263757,26.6098622 C18.6279886,29.1686923 15.6703036,30.6097176 12.766888,30.9194708 C8.11328273,31.4177693 5.50834915,29.1417572 4.96565465,24.0914347 C4.61290323,20.8322932 5.11489564,17.5192816 6.48519924,14.1793349 C7.85550285,10.8259207 9.8227704,8.01120761 12.3870019,5.73519557 C14.9512334,3.45918354 17.705408,2.15283344 20.6359583,1.82961279 C22.8474383,1.58719731 24.0413662,2.30097623 24.2177419,3.94401451 C24.3398482,5.02141665 23.959962,5.99107858 23.0916509,6.86646783 C22.2233397,7.72838955 21.2329222,8.22668804 20.1203985,8.34789578 C19.7133776,8.38829836 19.3470588,8.37483083 19.0214421,8.29402567 C18.7229602,8.81925922 18.6008539,9.29062266 18.6551233,9.70811599 C18.6958254,10.1390769 18.940038,10.4622975 19.3741935,10.6912455 C19.8083491,10.9201934 20.3374763,11.0009986 20.9751423,10.9336609 C22.3183112,10.7855181 23.5800759,10.2468171 24.7468691,9.31755771 C25.9136622,8.38829836 26.6598672,7.32436374 26.9854839,6.0988188 C27.1482922,5.45237751 27.2025617,4.87327386 27.1482922,4.36150784 C26.9990512,2.97435257 26.1714421,1.89695043 24.6654649,1.15623645 C23.1594877,0.415522474 21.0836812,0.186574518 18.4516129,0.469392582 C15.8059772,0.752210645 13.214611,1.74880763 10.6503795,3.45918354 C8.08614801,5.16955945 6.02390892,7.21662353 4.46366224,9.6138433 C2.8898482,12.0110631 1.72305503,14.5429581 0.936148008,17.222996 C0.149240987,19.9030338 -0.108538899,22.4214613 0.149240987,24.7782785 C0.827609108,31.0002759 4.53149905,33.7476514 11.2880455,33.0204049 C14.1914611,32.7106518 16.9727704,31.8487301 19.6319734,30.4211723 C22.2911765,29.0070819 24.4483871,27.2428359 26.0764706,25.1688368 C26.3342505,24.8321486 26.5648956,24.508928 26.7955408,24.1991749 C26.8091082,24.4415904 26.8226755,24.6705383 26.8498102,24.9129538 C27.0397533,26.6906673 27.6367173,27.9566149 28.6407021,28.7242639 C29.6446869,29.4919129 30.8521822,29.801666 32.2903226,29.6400557 C34.5289374,29.3976402 36.2926945,28.6165237 37.5951613,27.3101736 C38.8976281,26.0038235 39.942315,24.2665125 40.7563567,22.1521108 C41.5025617,22.6234742 42.3573055,22.7985521 43.3205882,22.6908119 C44.1481973,22.5965392 44.9893738,22.1790458 45.857685,21.4113968 C45.4370968,23.1217727 44.9622391,25.1014992 44.4195446,27.3775112 C42.8457306,33.9900669 41.7467742,37.8821821 41.1091082,39.0403894 L43.1713472,38.824909 C43.7411765,38.7575714 44.2160342,38.6363636 44.5687856,38.4612858 C44.921537,38.2727404 45.2335863,37.9225847 45.4777989,37.3973512 C45.7220114,36.8721176 46.0476281,35.7408454 46.4410816,34.0035344 L48.0420304,26.3001091 C48.5440228,27.6603293 50.1585389,28.1855628 52.9262808,27.8892772 C55.6804554,27.5929916 57.9733397,26.4751869 59.7913662,24.5223955 C60.9174573,23.3237856 61.9485769,21.8558252 62.9118596,20.1454493 C62.8847249,20.8322932 62.9118596,21.519137 62.9796964,22.2059809 C63.264611,24.8186811 64.3635674,26.017291 66.2901328,25.8152781 C69.0714421,25.5189925 71.798482,22.3271886 74.4441176,16.2398665 C74.0235294,18.0041125 73.9149905,19.7683585 74.1049336,21.5326046 C74.3627135,23.8894218 75.2581594,24.9802914 76.8184061,24.8186811 C78.8128083,24.6032007 80.9835863,22.2867861 83.33074,17.8829048 C83.2086338,18.9333719 83.1814991,19.8087611 83.2493359,20.495605 C83.3578748,21.6807473 83.6834915,22.5426691 84.2126186,23.1083052 C84.7417457,23.6739413 85.3794118,23.9028893 86.1391841,23.8220841 C86.8989564,23.741279 87.5501898,23.5796686 88.0928843,23.3507207 C88.6355787,23.1217727 89.354649,22.5292015 90.2500949,21.5864747 C91.1455408,20.6437478 92.1766603,19.2565925 93.3570209,17.4384764 L91.6068311,24.1722398 C90.48074,28.4549133 88.7441176,30.7309254 86.4240987,30.9733409 C85.8271347,31.0406785 85.311575,30.9329383 84.8909867,30.6366527 C84.4703985,30.3538346 84.226186,29.9363413 84.1719165,29.3976402 C84.0633776,28.3741082 84.2533207,27.754602 84.7553131,27.525654 C84.5789374,27.2563035 84.3075901,27.0273555 83.9412713,26.8388101 C83.5749526,26.6502648 83.140797,26.5829271 82.6388046,26.6367972 C82.1368121,26.6906673 81.7162239,26.9869529 81.3906072,27.525654 C81.0514231,28.0643551 80.9293169,28.6434587 80.9971537,29.2764325 C81.1328273,30.4750424 81.7297913,31.283094 82.8151803,31.7275224 C83.9005693,32.1719508 85.1487666,32.3200936 86.586907,32.1584832 C88.0250474,32.0103404 89.4089184,31.4985744 90.7385199,30.6635877 C92.0681214,29.8151336 93.1399431,28.7646665 93.9675522,27.4987189 C94.7951613,26.2327714 95.4463947,24.5627981 95.9483871,22.5022665 C96.1383302,21.8154226 96.3689753,20.8592282 96.6538899,19.6067482 C96.9388046,18.3542682 97.1287476,17.5731517 97.1965844,17.249931 C97.2779886,16.9267104 97.4950664,16.0109186 97.8613852,14.489088 C98.2141366,12.9672575 98.6754269,11.2838166 99.2316888,9.4118304 C99.9236243,7.18968847 100.683397,5.7486631 101.511006,5.11568934 L99.6658444,5.30423472 L99.6658444,5.30423472 Z M39.2232448,15.3106072 C38.5041746,15.3914123 37.9614801,15.6742304 37.5951613,16.1725289 C37.2288425,16.6708274 37.0796015,17.3038011 37.1745731,18.0714502 C37.3102467,19.3239302 37.9072106,20.3070596 38.9790323,21.0208385 C38.4363378,22.6638768 37.7037002,24.1857073 36.7946869,25.5863301 C35.8856736,26.9869529 34.813852,27.754602 33.579222,27.8892772 C32.0732448,27.9700824 31.2320683,27.1485632 31.0421252,25.4516549 C30.8521822,23.7547465 31.1642315,21.7884876 31.9782732,19.5798132 C33.4571157,15.5664902 35.1937381,13.465556 37.1745731,13.2500755 C38.4363378,13.1154003 39.2096774,13.7887766 39.4810247,15.2836721 L39.2232448,15.3106072 L39.2232448,15.3106072 Z M50.1856736,26.2866415 C49.3580645,26.3809142 48.8696395,25.7479405 48.7203985,24.4146553 C48.5711575,23.0813701 49.0460152,21.2901891 50.1449715,19.0545796 C51.2439279,16.8189702 52.3293169,15.1759319 53.4011385,14.1389323 C54.0523719,13.492491 54.690038,13.1423353 55.2870019,13.0749977 C55.4633776,13.0615302 55.5854839,13.0615302 55.6804554,13.0749977 C56.1281784,13.1423353 56.3859583,13.5328936 56.4673624,14.2466725 C56.6437381,15.8897108 56.0196395,18.2734631 54.5814991,21.3844618 C53.1433586,24.4954605 51.6780835,26.1250312 50.1856736,26.2866415 L50.1856736,26.2866415 Z M73.033112,16.8189702 C72.3683112,18.1522553 71.5814042,19.3373977 70.6723909,20.3609297 C69.7633776,21.3844618 68.9357685,21.9500979 68.1895636,22.030903 C67.4976281,22.0982407 67.1041746,21.7076824 67.009203,20.8188256 C66.7921252,18.7717616 67.4297913,16.3610742 68.9222011,13.5732962 C70.414611,10.7855181 72.1105313,9.29062266 74.009962,9.08860976 C75.0682163,8.98086954 75.8008539,9.35796029 76.18074,10.2333495 C75.5566414,11.6474399 74.5119545,13.8426467 73.033112,16.8189702 L73.033112,16.8189702 Z" id="Shape" sketch:type="MSShapeGroup"></path>
            <g id="Group" transform="translate(12.074953, 31.932702)" sketch:type="MSShapeGroup">
                <path d="M28.7899431,0.0372360693 C19.0078748,1.69374187 9.61925996,4.03709154 2.9983871,6.73059691 C0.230645161,7.84840163 -0.461290323,10.0974786 0.407020873,12.2118803 C11.6543643,7.12115519 17.2305503,5.68012981 25.4523719,3.66000079 C26.9040797,3.29637756 28.0708729,2.21897542 28.5457306,0.804885099 C28.6271347,0.535534562 28.7085389,0.279651552 28.7899431,0.0372360693 L28.7899431,0.0372360693 Z" id="Shape"></path>
            </g>
            <path d="M77.4696395,30.8656007 C77.7545541,29.6535232 77.4289374,29.5996531 76.18074,29.4245753 C69.3563567,28.4414458 61.8536053,28.5087835 52.8177419,30.4346398 C51.2981973,30.7578604 50.05,31.8083275 49.8057875,33.3436256 C49.8057875,33.3436256 61.1481025,29.6400557 77.4696395,30.8656007 L77.4696395,30.8656007 L77.4696395,30.8656007 Z" id="Shape" sketch:type="MSShapeGroup"></path>
        </g>
    </g>
</svg>