<svg xmlns="http://www.w3.org/2000/svg" viewBox="0 0 619.000000 234.000000" height="312" width="825.333" version="1"><defs><filter id="a" color-interpolation-filters="sRGB"><feColorMatrix values="0 0 0 0 0 0 0 0 0 0 0 0 0 0 0 0.21 0.72 0.07 0 0" result="result1"/><feColorMatrix values="1 0 0 0 0 0 1 0 0 0 0 0 1 0 0 0 0 0 2 0" result="result9"/><feComposite in2="result9" in="SourceGraphic" operator="in" result="result4"/><feFlood result="result2" flood-color="#000"/><feComposite in2="result9" operator="in" result="result10"/><feComposite in2="result4" operator="atop"/><feGaussianBlur stdDeviation="3" result="result8"/><feOffset dx="3" dy="3" result="result3" in="result8"/><feFlood flood-opacity="1" flood-color="#DBAD3E" result="result5"/><feMerge result="result6"><feMergeNode in="result5"/><feMergeNode in="result3"/><feMergeNode in="result4"/></feMerge><feComposite in2="SourceGraphic" operator="in" result="result7"/></filter><filter id="c" color-interpolation-filters="sRGB"><feColorMatrix result="result2" type="luminanceToAlpha" in="SourceGraphic"/><feSpecularLighting specularConstant=".5" surfaceScale="-15" specularExponent="10" result="result10"><feDistantLight elevation="20" azimuth="225"/></feSpecularLighting><feDiffuseLighting diffuseConstant=".5" surfaceScale="15"><feDistantLight azimuth="225" elevation="20"/></feDiffuseLighting><feComposite result="result11" in2="result10" operator="arithmetic" k2=".5" k3=".5"/><feComposite in="result11" result="result9" operator="arithmetic" k2="1" k3="1" in2="SourceGraphic"/><feComposite in2="SourceGraphic" operator="in" in="result9"/></filter><filter id="b" color-interpolation-filters="sRGB"><feGaussianBlur result="result0" in="SourceAlpha" stdDeviation="4"/><feOffset dx="5" dy="5" result="result4"/><feComposite in="SourceGraphic" in2="result4" operator="xor" result="result3"/></filter></defs><path d="M470 77v41h6v11.6c0 10.1-.3 11.9-2 14.1-3.9 5-1.2 11.6 4.8 11.6 6.8 0 9.9-8 4.7-12.1-2.4-1.9-2.5-2.4-2.5-13.6V118h7V36h-18v41zm-61-6.6c0 2.6-.1 2.6-7.5 2.6-6.2 0-7.9-.4-9.5-2-4.3-4.3-12-1.1-12 4.8 0 5.5 8 9.5 11.2 5.7 3.8-4.5 3.9-4.6 10.7-4.3 6 .3 6.6.5 6.9 2.5.3 2 .9 2.3 5 2.3 6.5.1 12.4 3 15.2 7.5 2.2 3.6 5.2 19.7 3.8 21-.3.3-2.9-.9-5.8-2.7-10.4-6.5-24.5-4.6-32.6 4.4-2 2.2-4.3 5.6-5.1 7.5-1.9 4.7-1.8 15.1.2 19.9 1.8 4.4 7.6 10.9 11.6 13 8.3 4.3 19.2 3.6 26.7-1.7 4.8-3.3 4.2-3.4 11 2.3 2.5 2.2 4.3 2.8 7.7 2.8h4.5v-26.3c0-35.7-1.3-42.7-9.9-52-5.7-6.1-12.4-8.8-23.3-9.5l-8.8-.5v2.7zm15.5 42.6c8.7 5.4 11.4 17.8 5.9 26.7-4.1 6.6-10 9.6-17.7 9-10.7-.9-17.7-8.4-17.7-18.9 0-3.3.6-7.1 1.4-8.6 2-3.9 7.8-9.1 11.2-10.2 4.5-1.4 13-.4 16.9 2z"/><path d="M426 1618c-30.275-37.908-10.742-85.861 18.238-116.094 10.35-65.381 4.1-132.18 5.762-198.222 6.55-21.59-18.612-11.47-31.439-13.684-11.523-2.943-35.053 6.121-38.561-4.837-.864-103.361-2.58-213.455 55.688-303.788C542.37 812.979 770.49 743.183 956.414 808.635 989.44 819.613 1020.348 835.736 1052 850c41.951-30.558 82.06-75.617 138.837-70 11.529 3.138 35.691-6.358 39.163 4.837V1290h-70c1.183 65.147-3.02 130.633 3.5 195.5 23.678 34.294 66.453 71.178 40.908 119.957-27.28 57.51-127.38 37.395-133.188-25.44-4.415-41.321 42.176-66.005 36.934-108.378 3.238-60.481 1.327-121.095 1.846-181.639h-60c-1.867-73.074 5.574-147.167-8.672-219.278-19.274-63.33-80.062-105.613-140.182-126.35C791.37 907.697 637.25 790.7 575.004 894.236 535.921 968.397 562.2 1203.062 560 1283.969c-1.366 13.063-26.017 2.84-37.255 6.031-18.859-4.022-27.44 2.233-22.745 21.765 1.476 61.21-4.062 123.045 4.865 183.718 15.489 29.218 57.815 50.926 43.763 91.123C537.574 1638.072 459.121 1660.91 426 1618z" filter="url(#a)" fill="green" transform="matrix(.1 0 0 -.1 0 234)"/><path d="M235.9 71.4c-13.3 4.7-20.3 15.8-17 26.8 2.9 9.6 13.1 16.1 28.7 18.4 16.1 2.4 21.4 6.7 21.4 17.3 0 5-.3 5.7-4 9.2-7.2 6.9-20 8.7-29.3 4.3-2.7-1.3-3.7-2.4-3.7-4.2 0-3.2-5.2-8.2-8.5-8.2-1.6 0-3.8 1.2-5.7 3-2.5 2.6-2.9 3.6-2.4 6.3 1 4.9 3.7 7 9.3 7.2 2.6.1 6 .7 7.6 1.3 5.5 2.3 15.1 3.2 21.3 2.1 26.7-4.9 31.8-30.6 8.1-40.9-2.3-1-6.1-2.1-8.4-2.5-4.3-.7-4.3-.7-4.3-4.8 0-4-.2-4.3-4.4-6-2.4-1-8.124.63-9.424-.67-4.5-4.8-1.818-18.454 5.782-18.154 2 0 11.942 4.024 16.042 5.324l7.5 2.4 4.8-5.7 4.7-5.7-3.2-2c-9.2-5.7-26.1-8-34.9-4.8zm84.6.3c-12.1 4.4-20.4 11.8-25.9 23.3-2.9 6-3.1 7.3-3.1 17.1 0 10.1.1 10.8 3.8 18.1 4.5 9.2 12.2 16.7 21.7 21.2 5.5 2.6 7.9 3.2 15.6 3.4 8.1.3 9.9.1 15.5-2.3 4.2-1.7 8-2.6 11-2.5 4 .1 5-.3 6.8-2.6 6.2-7.9-3.3-17.6-11.2-11.4-1.9 1.5-2.7 3.2-2.9 6.3-.3 4.1-.5 4.3-5.3 6-7.1 2.5-20.3 1.9-26.8-1.3-11.4-5.4-21-18.2-22.4-29.8l-.6-5.2h9l.7-4.9c1.3-10.1 11-19.8 22.1-22.1 6.2-1.3 18.7 0 23.4 2.5l2.9 1.4 2.1-5.5c1.1-3.1 2.1-6 2.1-6.5 0-.6-2.6-2.2-5.7-3.7-5-2.3-7.4-2.7-16.8-2.9-8.6-.3-12.1.1-16 1.4zm213 0c-12.1 4.4-20.4 11.8-25.9 23.3-2.9 6-3.1 7.3-3.1 17.1 0 10.1.1 10.8 3.8 18.1 4.5 9.2 12.2 16.7 21.7 21.2 5.5 2.6 7.9 3.2 15.6 3.4 8.1.3 9.9.1 15.5-2.3 4.2-1.7 8-2.6 11-2.5 4 .1 5-.3 6.8-2.6 6.2-7.9-3.3-17.6-11.2-11.4-1.9 1.5-2.7 3.2-2.9 6.3-.3 4.1-.5 4.3-5.3 6-3.7 1.3-7.3 1.6-13.5 1.4-7.4-.3-9.3-.7-14.7-3.6-11.3-6.1-19.6-17.5-21-29l-.6-5.1H579v-6h-59.2l.6-2.8C522.3 95.4 532 87 541.5 85c6.2-1.3 18.7 0 23.4 2.5l2.9 1.4 2.1-5.5c1.1-3.1 2.1-6 2.1-6.5 0-.6-2.6-2.2-5.7-3.7-5-2.3-7.4-2.7-16.8-2.9-8.6-.3-12.1.1-16 1.4zM138 120.5V156h6v11.7c0 8.7-.4 12-1.4 13.2-4.4 4.9-1.5 12.1 4.9 12.1 2.5 0 3.9-.7 5.5-2.7 2.6-3.3 2-6.9-1.5-9.8-2.4-2-2.5-2.6-2.5-13.3V156h7l-2.118-1.705C144.534 146.772 156.7 128 158.6 131.1c.3.6 3 2.2 5.8 3.5 12.6 5.9 27.3.9 33.8-11.5 6.9-13.1.7-30-13.1-35.9-7.6-3.2-21.8-1-26 4.1-1.9 2.3-2.2 2.2-7.7-2.3-4-3.3-5.6-4-9.1-4H138zm45-26.3c11.8 6.1 14.8 20.5 6.2 30-4.3 4.8-8.5 6.8-14.2 6.8-7.9 0-19.742-2.988-23.042-10.088C144.358 104.412 166.9 86 183 94.2z"/><path d="M36.004 65.98c280.975 122.838 551.36-23.297 551.36-23.297L320.509 187.406l-1.412-149.665z" fill="none" stroke="#000" stroke-width=".8" filter="url(#b)"/><g opacity=".45" fill="green" filter="url(#c)" fill-rule="evenodd"><path d="M49.418 142.26l283.712 38.88 269.746-3.926-395.695-36.15z" fill="#afafde"/><path d="M49.418 57.652v84.608l157.763-1.197V58.618z" fill="#353564"/><path d="M207.181 58.618l395.695-29.16v147.756l-395.695-36.15z" fill="#e9e9ff"/><path d="M49.418 57.652L333.13 26.29l269.746 3.167-395.695 29.16z" fill="#4d4d9f"/><path d="M333.13 26.29v154.85l269.746-3.926V29.457z" fill="#d7d7ff"/><path d="M38.004 69.326v81.072l279.713 38.332-176.492 10.639z" fill="#8686bf"/><path d="M35.783 65.547c-4.014 3.95-.7 11.6-1.78 16.988.279 23.476-.553 47.193.415 70.52 6.064 2.963 14.27 2.217 21.13 3.787l263.897 36.164c4.87-3.115 1.067-11.682 2.272-16.983l267.561 9.816c-3.716-4.403-279.28-149.401-284.691-150.005z" fill="#8686bf"/></g><path d="M351.571 38.094a2.118 39.181 0 0 1 0 .026l-2.118-.026zM614.897 166.58a293.329 133.075 0 0 1-4.87 24.147l-288.46-24.147z" opacity=".45" fill="green"/></svg>