<?xml version="1.0" encoding="UTF-8" standalone="no"?>
<svg width="57px" height="25px" viewBox="0 0 57 25" version="1.1" xmlns="http://www.w3.org/2000/svg" xmlns:xlink="http://www.w3.org/1999/xlink" xmlns:sketch="http://www.bohemiancoding.com/sketch/ns">
    <!-- Generator: Sketch 3.3.1 (12002) - http://www.bohemiancoding.com/sketch -->
    <title>copay-logo</title>
    <desc>Created with Sketch.</desc>
    <defs></defs>
    <g id="Copay-1.0" stroke="none" stroke-width="1" fill="none" fill-rule="evenodd" sketch:type="MSPage">
        <g id="copay-logo" sketch:type="MSLayerGroup" fill="#2C3E50">
            <g id="Copay-1.0" sketch:type="MSShapeGroup">
                <g id="Desktop-HD">
                    <g id="download-3-copy" transform="translate(0.445757, 0.000000)">
                        <path d="M55.3699136,2.94679707 C54.9704301,2.99168882 54.5483344,3.08147233 54.096089,3.22362956 C53.9528779,3.26852132 53.8247417,3.35830483 53.7041429,3.47801618 C53.5835442,3.60520949 53.4855577,3.70247496 53.4101834,3.78477651 C53.3348092,3.86707807 53.2594349,4.00923529 53.1765233,4.21873016 C53.0936116,4.42822502 53.0333122,4.58534616 52.9956251,4.70505751 C52.957938,4.81728691 52.8976386,5.03426372 52.8147269,5.34850602 C52.7242779,5.66274833 52.6639785,5.902171 52.6112166,6.06677411 C52.2569576,7.25640567 51.6916508,8.46100111 50.9228337,9.69552439 C50.1540164,10.9300477 49.4831857,11.5734962 48.9103416,11.6333519 C48.6088446,11.6632797 48.4279464,11.4163751 48.3676471,10.877674 C48.2545857,9.86760944 48.4656336,8.59567639 48.9781784,7.05439272 C49.4982606,5.51310912 50.0484925,4.42822502 50.643949,3.79225847 C50.7268606,3.68751104 50.7720852,3.60520949 50.7645478,3.53787186 C50.7570103,3.47801618 50.7193232,3.44808834 50.6590238,3.4555703 C49.8148324,3.54535381 49.1590766,3.71743888 48.6917563,3.97930746 C48.224436,4.23369407 47.8098777,4.74246731 47.4254691,5.50562716 C47.1315096,6.09670194 46.8827746,6.82993394 46.6641893,7.72028711 C45.5938752,10.2716353 44.6215476,11.5959421 43.7472064,11.6857256 C43.4607843,11.7156534 43.294961,11.5286044 43.2497364,11.1170967 C43.1668248,10.3314909 43.4080223,9.02963 43.9884039,7.21899583 C44.5687856,5.40836169 45.0964052,4.26362191 45.5788003,3.78477651 L45.3376028,3.80722239 L44.1391524,3.91196982 C43.8225807,3.94937962 43.490934,4.11398272 43.1517499,4.42074306 C42.8125659,4.72750339 42.5789058,5.07167352 42.4432321,5.45325345 C42.2472591,4.96692609 41.9080751,4.63023792 41.4407548,4.45067089 C40.9658971,4.27110387 40.4759646,4.20376623 39.9709572,4.26362191 C38.8855682,4.38333326 37.9358528,4.88462454 37.1067362,5.78245967 C36.2851571,6.67281283 35.6897006,7.72028711 35.3279043,8.90243672 C35.3203668,8.92488261 35.3128294,8.94732844 35.305292,8.96977433 C35.2525301,9.08948567 35.1846932,9.22416094 35.1243938,9.36631817 C34.7173729,10.2491894 34.4008012,10.877674 34.1671411,11.2517719 C33.7375079,11.9326302 33.2174257,12.5760788 32.5993569,13.1671536 C31.9812882,13.7582283 31.3406072,14.0949165 30.6848513,14.1622541 L30.4964158,14.1847 C31.461206,13.3766484 32.2526354,12.3067282 32.8782416,10.9599756 C33.5038478,9.61322283 33.7525828,8.34877172 33.6244466,7.14417628 C33.4661607,5.69267617 32.8556293,5.02678177 31.7853152,5.13901116 C30.6547017,5.25872251 29.4487139,6.38101639 28.1824267,8.49092894 C28.8080329,6.82993394 29.3356526,5.8123875 29.7652857,5.45325345 L29.0492304,5.52807304 C28.1070525,5.6253385 27.4663715,5.88720711 27.1271874,6.30619683 C26.9613641,6.53065561 26.7201666,7.15165822 26.4262071,8.17668667 C26.3206831,8.54330267 26.1774721,9.08200372 25.9890365,9.78530789 C25.4237297,11.0722049 24.752899,11.7530632 23.9765444,11.8353648 C23.5318364,11.8802566 23.1700401,11.7530632 22.8911554,11.4463029 C23.1323529,10.5709137 23.2152646,9.76286206 23.1323529,8.99970217 C22.9137677,7.009501 21.8585283,6.11914783 19.9590976,6.32116072 C18.8284841,6.44087206 17.8410816,6.92719944 17.0044276,7.78762478 C16.4994202,8.30387994 16.0848619,8.86502689 15.7682901,9.47106561 C15.7682901,9.46358367 15.7758276,9.45610172 15.7758276,9.44861972 C15.0070103,10.877674 13.6804238,13.3616845 12.0146532,14.7832568 C10.3488826,16.2048291 8.70572422,17.0053987 7.09271556,17.1774838 C4.50737929,17.4543163 3.06019397,16.1898651 2.75869703,13.3841304 C2.56272402,11.5734962 2.84160869,9.73293422 3.60288847,7.87740828 C4.36416825,6.01440039 5.45709467,4.45067089 6.88166772,3.18621976 C8.30624078,1.92176863 9.83633778,1.19601858 11.4644213,1.01645155 C12.6930213,0.881776283 13.3563146,1.27832013 13.4543011,2.19111917 C13.5221379,2.78967592 13.31109,3.32837699 12.8286949,3.81470435 C12.3462998,4.29354975 11.7960679,4.57038224 11.1779992,4.63771988 C10.9518764,4.66016576 10.748366,4.65268379 10.5674678,4.60779204 C10.4016446,4.89958846 10.3338077,5.16145703 10.3639574,5.39339777 C10.3865697,5.6328205 10.5222433,5.8123875 10.7634408,5.93958083 C11.0046384,6.06677411 11.2985979,6.11166589 11.6528568,6.07425606 C12.3990618,5.9919545 13.1000422,5.69267617 13.7482606,5.17642095 C14.396479,4.66016576 14.8110373,4.06909097 14.9919355,3.38823267 C15.0823846,3.02909862 15.1125343,2.70737437 15.0823846,2.42305991 C14.9994729,1.65241809 14.5396901,1.05386135 13.7030361,0.642353583 C12.8663821,0.230845819 11.7131562,0.10365251 10.2508961,0.260773657 C8.78109844,0.417894803 7.34145056,0.971559794 5.9168775,1.92176863 C4.49230445,2.87197747 3.34661607,4.00923529 2.47981236,5.34102406 C1.60547122,6.67281283 0.957252794,8.07942117 0.520082227,9.56833111 C0.0829116594,11.057241 -0.0602993883,12.4563674 0.0829116594,13.7657103 C0.459782838,17.2223755 2.51749947,18.7486952 6.27113639,18.3446694 C7.88414506,18.1725843 9.42931689,17.6937389 10.9066519,16.9006513 C12.3839869,16.1150455 13.5824373,15.1349088 14.4869281,13.9826871 C14.6301392,13.7956381 14.7582753,13.6160711 14.8864116,13.4439861 C14.893949,13.5786613 14.9014864,13.7058546 14.9165612,13.8405299 C15.0220852,14.8281485 15.3537318,15.5314527 15.9115012,15.9579244 C16.4692705,16.3843961 17.1401012,16.5564811 17.9390681,16.4666976 C19.182743,16.3320223 20.1626081,15.8980687 20.8862007,15.1723187 C21.6097934,14.4465686 22.190175,13.4813958 22.6424204,12.3067282 C23.0569787,12.5685968 23.5318364,12.6658623 24.0669934,12.6060066 C24.5267763,12.5536329 24.9940966,12.3216921 25.4764917,11.8952204 C25.2428316,12.8454293 24.9790217,13.9452773 24.6775248,15.2097284 C23.8031837,18.8833705 23.1926523,21.0456567 22.8383934,21.6891052 L23.9840818,21.5693939 C24.3006536,21.5319841 24.5644634,21.4646464 24.7604364,21.367381 C24.9564094,21.2626336 25.1297702,21.0681026 25.2654438,20.7763062 C25.4011174,20.4845098 25.5820156,19.8560252 25.8006009,18.8908524 L26.6900169,14.6111717 C26.9689016,15.3668496 27.8658549,15.658646 29.4034893,15.4940429 C30.9335863,15.3294398 32.2074109,14.7084372 33.2174257,13.6235531 C33.8430318,12.9576587 34.4158761,12.1421251 34.9510331,11.1919163 C34.9359583,11.5734962 34.9510331,11.9550761 34.9887202,12.3366561 C35.1470061,13.7881562 35.7575374,14.4540506 36.8278516,14.3418212 C38.3730234,14.1772181 39.8880456,12.4039937 41.3578431,9.02214806 C41.124183,10.0022847 41.0638836,10.9824214 41.1694076,11.9625581 C41.3126186,13.271901 41.8100886,13.8779397 42.6768923,13.7881562 C43.7848935,13.6684448 44.9908813,12.3815478 46.2948556,9.93494711 C46.2270188,10.5185399 46.2119439,11.0048673 46.2496311,11.3864472 C46.3099304,12.0448596 46.4908286,12.5237051 46.7847881,12.8379473 C47.0787476,13.1521896 47.4330066,13.2793829 47.8551023,13.2344912 C48.277198,13.1895994 48.6389943,13.0998159 48.9404913,12.9726226 C49.2419882,12.8454293 49.6414717,12.5162231 50.1389416,11.9924859 C50.6364116,11.4687488 51.2092557,10.6981069 51.8650116,9.68804244 L50.8926839,13.4290221 C50.2670778,15.8082852 49.3022876,17.0727363 48.0133882,17.2074116 C47.6817415,17.2448214 47.3953194,17.1849657 47.1616593,17.0203626 C46.9279992,16.8632414 46.7923256,16.6313007 46.7621758,16.3320223 C46.7018764,15.7633934 46.8074004,15.4192233 47.0862851,15.29203 C46.9882986,15.1423908 46.8375501,15.0151975 46.6340396,14.9104501 C46.4305292,14.8057027 46.1893317,14.7682928 45.910447,14.7982207 C45.6315623,14.8281485 45.3979022,14.9927516 45.217004,15.29203 C45.0285684,15.5913084 44.9607316,15.9130326 44.9984187,16.2646847 C45.0737929,16.9305791 45.4054396,17.3794967 46.0084335,17.6264013 C46.6114274,17.873306 47.3048703,17.9556076 48.1038372,17.865824 C48.9028041,17.7835224 49.6716213,17.499208 50.4102888,17.0353265 C51.1489563,16.5639631 51.7444128,15.9803703 52.2041957,15.2770661 C52.6639785,14.5737619 53.0257748,13.6459989 53.3046595,12.5012592 C53.4101834,12.1196792 53.5383196,11.5884601 53.6966055,10.8926379 C53.8548914,10.1968157 53.9604153,9.76286206 53.9981024,9.583295 C54.043327,9.403728 54.1639258,8.89495478 54.3674362,8.04949333 C54.5634092,7.20403194 54.8196816,6.268787 55.128716,5.22879467 C55.5131246,3.99427137 55.9352206,3.19370172 56.3950033,2.84204963 L55.3699136,2.94679707 L55.3699136,2.94679707 Z M21.7906916,8.50589289 C21.3912081,8.55078461 21.0897112,8.70790578 20.8862007,8.98473828 C20.6826903,9.26157078 20.5997786,9.61322283 20.6525406,10.0396946 C20.7279148,10.7355168 21.0595614,11.2816998 21.6550179,11.6782436 C21.353521,12.5910427 20.9465001,13.4365041 20.4414927,14.2146278 C19.9364853,14.9927516 19.3410289,15.4192233 18.6551233,15.4940429 C17.8184693,15.5389347 17.3511491,15.0825351 17.2456251,14.1398083 C17.1401012,13.1970814 17.3134619,12.1047153 17.7657073,10.877674 C18.5872865,8.64805011 19.5520767,7.48086444 20.6525406,7.36115306 C21.353521,7.2863335 21.7831541,7.66043144 21.9339026,8.49092894 L21.7906916,8.50589289 L21.7906916,8.50589289 Z M27.8809298,14.6036897 C27.4211469,14.6560634 27.1497997,14.3044114 27.0668881,13.5636974 C26.9839764,12.8229834 27.2477862,11.8278828 27.8583175,10.5858776 C28.4688488,9.34387233 29.0718427,8.43107328 29.6672992,7.85496239 C30.0290955,7.49582833 30.3833544,7.30129739 30.7150011,7.26388761 C30.8129876,7.25640567 30.8808244,7.25640567 30.9335863,7.26388761 C31.1823213,7.30129739 31.3255324,7.51827422 31.3707569,7.91481806 C31.4687434,8.82761711 31.1220219,10.1519239 30.3230551,11.8802566 C29.5240881,13.6085892 28.7100464,14.5139062 27.8809298,14.6036897 L27.8809298,14.6036897 L27.8809298,14.6036897 Z M40.5739511,9.34387233 C40.2046173,10.0845863 39.7674468,10.7429987 39.2624394,11.3116276 C38.757432,11.8802566 38.2976492,12.1944988 37.8830909,12.2393906 C37.4986823,12.2768004 37.280097,12.0598236 37.227335,11.5660142 C37.1067362,10.4287564 37.4609952,9.08948567 38.2901117,7.54072011 C39.1192283,5.9919545 40.0614063,5.16145703 41.1166456,5.04922764 C41.7045646,4.98937197 42.1115855,5.19886683 42.3226333,5.68519417 C41.9759119,6.47079994 41.3955303,7.69035928 40.5739511,9.34387233 L40.5739511,9.34387233 L40.5739511,9.34387233 Z" id="Shape"></path>
                        <path d="M22.7027201,17.7610767 C17.2682377,18.6813577 12.0523405,19.9832186 8.37407783,21.4796105 C6.83644342,22.1006131 6.45203482,23.3501003 6.93442993,24.5247679 C13.1829541,21.6965873 16.2808352,20.8960177 20.8485138,19.7737238 C21.6550182,19.5717109 22.3032366,18.9731541 22.5670464,18.1875484 C22.6122709,18.0379092 22.6574955,17.895752 22.7027201,17.7610767 L22.7027201,17.7610767 L22.7027201,17.7610767 Z" id="Shape"></path>
                        <path d="M43.0386886,17.1475559 C43.1969745,16.4741796 43.0160763,16.4442517 42.3226333,16.3469863 C38.5313093,15.8008032 34.3631141,15.8382131 29.3431899,16.9081332 C28.4989985,17.0877002 27.8055556,17.6712931 27.6698819,18.5242364 C27.6698819,18.5242364 33.9711681,16.4666976 43.0386886,17.1475559 L43.0386886,17.1475559 L43.0386886,17.1475559 Z" id="Shape"></path>
                    </g>
                </g>
            </g>
        </g>
    </g>
</svg>