<?xml version="1.0" encoding="UTF-8" standalone="no"?>
<svg width="69px" height="30px" viewBox="0 0 69 30" version="1.1" xmlns="http://www.w3.org/2000/svg" xmlns:xlink="http://www.w3.org/1999/xlink" xmlns:sketch="http://www.bohemiancoding.com/sketch/ns">
    <!-- Generator: Sketch 3.3.1 (12002) - http://www.bohemiancoding.com/sketch -->
    <title>download 3 copy</title>
    <desc>Created with Sketch.</desc>
    <defs></defs>
    <g id="Copay-1.0" stroke="none" stroke-width="1" fill="none" fill-rule="evenodd" sketch:type="MSPage">
        <g id="Mobile-Portrait" sketch:type="MSArtboardGroup" transform="translate(-14.000000, -14.000000)" fill="#FFFFFF">
            <g id="download-3-copy" sketch:type="MSLayerGroup" transform="translate(14.745580, 14.000000)">
                <path d="M66.4438963,3.53615648 C65.9645161,3.59002658 65.4580013,3.6977668 64.9153068,3.86835547 C64.7434535,3.92222558 64.5896901,4.02996579 64.4449715,4.17361941 C64.300253,4.32625139 64.1826692,4.44296995 64.0922201,4.54173181 C64.001771,4.64049368 63.9113219,4.81108235 63.811828,5.06247619 C63.712334,5.31387002 63.6399747,5.5024154 63.5947502,5.64606902 C63.5495256,5.78074428 63.4771664,6.04111647 63.3776724,6.41820722 C63.2691335,6.79529797 63.1967742,7.08260521 63.1334598,7.28012894 C62.7083491,8.70768678 62.029981,10.1532013 61.1074004,11.6346293 C60.1848197,13.1160572 59.3798229,13.8881954 58.6924099,13.9600222 C58.3306135,13.9959357 58.1135357,13.6996501 58.0411765,13.0532088 C57.9055028,11.8411314 58.1587603,10.3148117 58.773814,8.4652713 C59.3979127,6.61573095 60.058191,5.31387002 60.7727388,4.55071017 C60.8722328,4.42501325 60.9265022,4.32625139 60.9174573,4.24544622 C60.9084124,4.17361941 60.8631879,4.13770601 60.7908286,4.14668436 C59.7777989,4.25442458 58.9908918,4.46092665 58.4301075,4.77516895 C57.8693232,5.08043289 57.3718533,5.69096077 56.9105629,6.6067526 C56.5578115,7.31604234 56.2593295,8.19592076 55.9970272,9.26434456 C54.7126502,12.3259623 53.5458571,13.9151305 52.4966477,14.0228707 C52.1529412,14.0587841 51.9539532,13.8343253 51.8996837,13.340516 C51.8001898,12.3977891 52.0896268,10.835556 52.7860848,8.66279503 C53.4825427,6.49003403 54.1156863,5.11634629 54.6945604,4.54173181 L54.4051233,4.56866687 L52.9669829,4.69436379 C52.5870968,4.73925554 52.1891208,4.93677927 51.7820999,5.30489167 C51.3750791,5.67300407 51.0946869,6.08600823 50.9318786,6.54390414 C50.6967109,5.96031131 50.2896901,5.5562855 49.7289058,5.34080507 C49.1590765,5.12532464 48.5711575,5.04451948 47.9651486,5.11634629 C46.6626818,5.25999991 45.5230234,5.86154944 44.5280835,6.93895159 C43.5421885,8.00737539 42.8276407,9.26434456 42.3934851,10.6829241 C42.3844402,10.7098591 42.3753953,10.7367942 42.3663504,10.7637292 C42.3030361,10.9073828 42.2216319,11.0689932 42.1492726,11.2395818 C41.6608476,12.2990273 41.2809614,13.0532088 41.0005693,13.5021263 C40.4850095,14.3191563 39.8609108,15.0912945 39.1192283,15.8005842 C38.3775459,16.509874 37.6087287,16.9138998 36.8218216,16.994705 L36.5956989,17.02164 C37.7534472,16.0519781 38.7031626,14.7680739 39.4538899,13.1519706 C40.2046173,11.5358674 40.5030993,10.0185261 40.3493359,8.57301151 C40.1593928,6.83121138 39.4267552,6.03213812 38.1423782,6.16681339 C36.785642,6.31046701 35.3384567,7.65721969 33.8189121,10.1891147 C34.5696395,8.19592076 35.202783,6.974865 35.7183428,6.54390414 L34.8590765,6.63368765 C33.728463,6.75040622 32.9596458,7.06464851 32.5526249,7.56743618 C32.3536369,7.83678671 32.0641999,8.58198987 31.7114485,9.81202398 C31.5848197,10.2519632 31.4129665,10.8984045 31.1868438,11.7423695 C30.5084756,13.2866459 29.7034788,14.1036759 28.7718533,14.2024377 C28.2382037,14.2563078 27.8040481,14.1036759 27.4693865,13.7355635 C27.7588235,12.6850964 27.8583175,11.7154344 27.7588235,10.7996426 C27.4965212,8.41140119 26.230234,7.3429774 23.9509171,7.58539288 C22.5941809,7.7290465 21.4092979,8.31263933 20.4053131,9.34514972 C19.7993042,9.96465595 19.3018343,10.6380323 18.9219481,11.3652787 C18.9219481,11.3563004 18.930993,11.347322 18.930993,11.3383437 C18.0084124,13.0532088 16.4165085,16.0340214 14.4175838,17.7399081 C12.4186591,19.4457948 10.4468691,20.4064784 8.5112587,20.6129805 C5.40885515,20.9451795 3.67223276,19.4278381 3.31043643,16.0609564 C3.07526882,13.8881954 3.40993042,11.679521 4.32346616,9.45288993 C5.2370019,7.21728048 6.5485136,5.34080507 8.25800127,3.82346372 C9.96748893,2.30612236 11.8036053,1.43522229 13.7573055,1.21974186 C15.2316256,1.05813154 16.0275775,1.53398415 16.1451613,2.629343 C16.2265655,3.3476111 15.973308,3.99405239 15.3944339,4.57764522 C14.8155598,5.1522597 14.1552815,5.48445869 13.413599,5.56526385 C13.1422517,5.59219891 12.8980392,5.58322056 12.6809614,5.52935045 C12.4819734,5.87950615 12.4005693,6.19374844 12.4367489,6.47207733 C12.4638836,6.75938457 12.626692,6.974865 12.916129,7.12749697 C13.2055661,7.28012894 13.5583175,7.33399905 13.9834282,7.28910729 C14.8788741,7.19034543 15.7200506,6.83121138 16.4979127,6.21170514 C17.2757748,5.59219891 17.7732448,4.88290916 17.9903226,4.0658792 C18.0988615,3.63491834 18.1350411,3.24884924 18.0988615,2.90767189 C17.9993675,1.98290172 17.4476281,1.26463362 16.4436433,0.7708243 C15.4396584,0.277014983 14.0557875,0.124383012 12.3010753,0.312928388 C10.5373182,0.501473764 8.80974067,1.16587175 7.100253,2.30612236 C5.39076534,3.44637297 4.01593928,4.81108235 2.97577483,6.40922887 C1.92656546,8.00737539 1.14870335,9.69530542 0.624098672,11.4819973 C0.0994939911,13.2686892 -0.0723592663,14.9476409 0.0994939911,16.5188523 C0.551739405,20.6668506 3.02099937,22.4984343 7.52536369,22.0136033 C9.46097407,21.8071012 11.3151803,21.2324867 13.0879823,20.2807815 C14.8607843,19.3380546 16.2989247,18.1618906 17.3843137,16.7792245 C17.556167,16.5547658 17.7099304,16.3392853 17.8636939,16.1327832 C17.8727388,16.2943936 17.8817837,16.4470255 17.8998735,16.6086359 C18.0265022,17.7937782 18.4244782,18.6377432 19.0938014,19.1495093 C19.7631246,19.6612753 20.5681214,19.8677774 21.5268817,19.7600371 C23.0192916,19.5984268 24.1951297,19.0776824 25.0634409,18.2067824 C25.9317521,17.3358823 26.62821,16.177675 27.1709045,14.7680739 C27.6683744,15.0823162 28.2382037,15.1990347 28.8803922,15.1272079 C29.4321316,15.0643594 29.9929159,14.7860306 30.57179,14.2742645 C30.2913978,15.4145151 29.9748261,16.7343328 29.6130297,18.2516741 C28.5638204,22.6600446 27.8311828,25.2547881 27.4060721,26.0269263 L28.7808982,25.8832727 C29.1607843,25.8383809 29.4773561,25.7575758 29.7125237,25.6408572 C29.9476913,25.5151603 30.1557242,25.2817231 30.3185326,24.9315674 C30.4813409,24.5814117 30.6984187,23.8272302 30.9607211,22.6690229 L32.0280202,17.533406 C32.3626818,18.4402195 33.4390259,18.7903752 35.2841872,18.5928515 C37.1203036,18.3953278 38.6488931,17.6501246 39.8609108,16.3482637 C40.6116382,15.5491904 41.2990512,14.5705501 41.9412397,13.4302995 C41.9231499,13.8881954 41.9412397,14.3460914 41.9864643,14.8039873 C42.1764073,16.5457874 42.9090449,17.3448607 44.1934219,17.2101854 C46.0476281,17.0126617 47.8656546,14.8847924 49.6294118,10.8265777 C49.3490196,12.0027417 49.2766603,13.1789057 49.4032891,14.3550697 C49.5751423,15.9262812 50.1721063,16.6535276 51.2122707,16.5457874 C52.5418722,16.4021338 53.9890576,14.8578574 55.5538267,11.9219365 C55.4724225,12.6222479 55.4543327,13.2058407 55.4995572,13.6637367 C55.5719165,14.4538316 55.7889943,15.028446 56.1417457,15.4055368 C56.4944972,15.7826275 56.9196078,15.9352595 57.4261227,15.8813894 C57.9326376,15.8275193 58.3667932,15.7197791 58.7285895,15.5671471 C59.0903858,15.4145151 59.569766,15.0194677 60.1667299,14.3909831 C60.7636939,13.7624985 61.4511069,12.8377283 62.2380139,11.6256509 L61.0712207,16.1148265 C60.3204934,18.9699422 59.1627451,20.4872836 57.6160658,20.6488939 C57.2180898,20.6937857 56.8743833,20.6219589 56.5939911,20.4244351 C56.313599,20.2358898 56.1507906,19.9575609 56.114611,19.5984268 C56.0422517,18.9160721 56.1688805,18.503068 56.5035421,18.350436 C56.3859583,18.170869 56.2050601,18.018237 55.9608476,17.8925401 C55.716635,17.7668432 55.427198,17.7219514 55.0925364,17.7578648 C54.7578748,17.7937782 54.4774826,17.9913019 54.2604048,18.350436 C54.0342821,18.70957 53.9528779,19.0956391 53.9981025,19.5176217 C54.0885515,20.3166949 54.4865275,20.855396 55.2101202,21.1516816 C55.9337128,21.4479672 56.7658444,21.546729 57.7246047,21.4389888 C58.683365,21.340227 59.6059456,20.9990496 60.4923466,20.4423918 C61.3787476,19.8767557 62.0932954,19.1764443 62.6450348,18.3324793 C63.1967742,17.4885143 63.6309298,16.3751987 63.9655914,15.001511 C64.0922201,14.5436151 64.2459836,13.9061521 64.4359266,13.0711655 C64.6258697,12.2361788 64.7524984,11.7154344 64.797723,11.499954 C64.8519924,11.2844736 64.9967109,10.6739457 65.2409235,9.65939201 C65.4760911,8.64483832 65.783618,7.52254442 66.1544592,6.2745536 C66.6157495,4.79312565 67.1222644,3.83244207 67.6740038,3.41045956 L66.4438963,3.53615648 L66.4438963,3.53615648 Z M26.1488299,10.2070714 C25.6694497,10.2609415 25.3076534,10.4494869 25.0634409,10.7816859 C24.8192283,11.1138849 24.7197343,11.5358674 24.7830487,12.0476334 C24.8734978,12.8826201 25.2714738,13.5380397 25.9860215,14.0138924 C25.6242252,15.1092512 25.1358001,16.1238049 24.5297913,17.0575534 C23.9237824,17.9913019 23.2092347,18.503068 22.386148,18.5928515 C21.3821632,18.6467216 20.8213789,18.0990422 20.6947502,16.9677699 C20.5681214,15.8364977 20.7761543,14.5256584 21.3188488,13.0532088 C22.3047438,10.3776601 23.4624921,8.97703732 24.7830487,8.8333837 C25.6242252,8.74360019 26.1397849,9.19251775 26.3206831,10.1891147 L26.1488299,10.2070714 L26.1488299,10.2070714 Z M33.4571157,17.5244277 C32.9053763,17.5872761 32.5797596,17.1652936 32.4802657,16.2764369 C32.3807717,15.3875801 32.6973435,14.1934594 33.429981,12.7030531 C34.1626186,11.2126468 34.8862113,10.1172879 35.600759,9.42595488 C36.0349146,8.99499402 36.4600253,8.76155689 36.8580013,8.71666513 C36.9755851,8.70768678 37.0569892,8.70768678 37.1203036,8.71666513 C37.4187856,8.76155689 37.5906388,9.02192908 37.6449083,9.49778169 C37.7624921,10.5931405 37.3464263,12.1823087 36.387666,14.2563078 C35.4289058,16.330307 34.4520557,17.4166875 33.4571157,17.5244277 L33.4571157,17.5244277 Z M48.6887413,11.2126468 C48.2455408,12.1015035 47.7209361,12.8915985 47.1149273,13.5739531 C46.5089184,14.2563078 45.957179,14.6333986 45.459709,14.6872687 C44.9984187,14.7321605 44.7361164,14.4717883 44.672802,13.8792171 C44.5280835,12.5145077 44.9531942,10.9073828 45.9481341,9.04886413 C46.943074,7.19034543 48.0736875,6.19374844 49.3399747,6.05907317 C50.0454775,5.98724636 50.5339026,6.2386402 50.78716,6.82223303 C50.3710942,7.7649599 49.6746363,9.22843115 48.6887413,11.2126468 L48.6887413,11.2126468 Z" id="Shape" sketch:type="MSShapeGroup"></path>
                <g id="Group" transform="translate(8.049968, 21.288468)" sketch:type="MSShapeGroup">
                    <path d="M19.1932954,0.0248240462 C12.6719165,1.12916125 6.41283997,2.69139436 1.99892473,4.4870646 C0.153763441,5.23226776 -0.307526882,6.73165241 0.271347249,8.14125355 C7.76957622,4.74743679 11.4870335,3.78675321 16.9682479,2.44000053 C17.9360531,2.19758504 18.7139152,1.47931694 19.030487,0.536590066 C19.0847565,0.357023042 19.1390259,0.186434368 19.1932954,0.0248240462 L19.1932954,0.0248240462 Z" id="Shape"></path>
                </g>
                <path d="M51.6464263,20.5770671 C51.8363694,19.7690155 51.6192916,19.7331021 50.78716,19.6163835 C46.2375712,18.9609639 41.2357369,19.0058556 35.211828,20.2897599 C34.1987982,20.5052403 33.3666667,21.2055517 33.2038583,22.2290837 C33.2038583,22.2290837 40.7654016,19.7600371 51.6464263,20.5770671 L51.6464263,20.5770671 L51.6464263,20.5770671 Z" id="Shape" sketch:type="MSShapeGroup"></path>
            </g>
        </g>
    </g>
</svg>