<?xml version="1.0" encoding="UTF-8" standalone="no"?>
<svg width="26px" height="30px" viewBox="0 0 26 30" version="1.1" xmlns="http://www.w3.org/2000/svg" xmlns:xlink="http://www.w3.org/1999/xlink" xmlns:sketch="http://www.bohemiancoding.com/sketch/ns">
    <!-- Generator: Sketch 3.3.2 (12043) - http://www.bohemiancoding.com/sketch -->
    <title>fi-social-apple</title>
    <desc>Created with Sketch.</desc>
    <defs></defs>
    <g id="Page-1" stroke="none" stroke-width="1" fill="none" fill-rule="evenodd" sketch:type="MSPage">
        <g id="fi-social-apple" sketch:type="MSLayerGroup" fill="#748598">
            <g id="Group" transform="translate(0.000000, 0.000000)" sketch:type="MSShapeGroup">
                <path d="M24.8322222,9.94111111 C23.3048148,8.03777778 21.1618519,6.93666667 19.1388889,6.93666667 C16.4625926,6.93666667 15.3318519,8.20814815 13.4751852,8.20814815 C11.5614815,8.20814815 10.1062963,6.93851852 7.79148148,6.93851852 C5.51777778,6.93851852 3.10037037,8.31962963 1.56777778,10.68 C-0.588888889,13.9992593 -0.223703704,20.2444444 3.27333333,25.5662963 C4.52407407,27.4692593 6.19444444,29.6092593 8.37851852,29.6296296 C10.3196296,29.6474074 10.8688889,28.3914815 13.5025926,28.3766667 C16.1366667,28.3622222 16.6348148,29.6433333 18.5755556,29.6251852 C20.7596296,29.6044444 22.5218519,27.2348148 23.7718519,25.3314815 C24.6677778,23.9681481 25.0014815,23.2792593 25.6974074,21.7381481 C20.6414815,19.8277778 19.8285185,12.6837037 24.8322222,9.94111111 L24.8322222,9.94111111 Z" id="Shape"></path>
                <path d="M17.1088889,4.81037037 C18.0811111,3.56296296 18.8196296,1.80074074 18.5514815,0 C16.9633333,0.10962963 15.1055556,1.11962963 14.0211111,2.43703704 C13.0366667,3.63259259 12.2237037,5.40555556 12.54,7.12888889 C14.2737037,7.18259259 16.0677778,6.14666667 17.1088889,4.81037037 L17.1088889,4.81037037 Z" id="Shape"></path>
            </g>
        </g>
    </g>
</svg>