<?xml version="1.0" encoding="UTF-8" standalone="no"?>
<svg width="25px" height="25px" viewBox="0 0 25 25" version="1.1" xmlns="http://www.w3.org/2000/svg" xmlns:xlink="http://www.w3.org/1999/xlink" xmlns:sketch="http://www.bohemiancoding.com/sketch/ns">
    <!-- Generator: Sketch 3.3.2 (12043) - http://www.bohemiancoding.com/sketch -->
    <title>Group Copy</title>
    <desc>Created with Sketch.</desc>
    <defs></defs>
    <g id="Page-1" stroke="none" stroke-width="1" fill="none" fill-rule="evenodd" sketch:type="MSPage">
        <g id="Group-Copy" sketch:type="MSLayerGroup" transform="translate(-1.000000, 0.000000)" fill="#748598">
            <path d="M13.5,18.90625 C12.25,18.90625 11.078125,18.5546875 10.0234375,17.890625 C8.96875,17.1875 8.1875,16.328125 7.6796875,15.234375 L2.5625,6.25 C1.46875,8.1640625 1,10.3125 1,12.5 C1,15.625 2.015625,18.359375 4.046875,20.6640625 C6.078125,23.0078125 8.6171875,24.375 11.625,24.84375 L15.2578125,18.5546875 C14.90625,18.671875 14.28125,18.90625 13.5,18.90625" id="Fill-1" sketch:type="MSShapeGroup"></path>
            <path d="M9.5546875,7.4609375 C10.7265625,6.5625 12.015625,6.25 13.5,6.25 L24.2421875,6.25 C23.1484375,4.375 21.625,2.7734375 19.7109375,1.640625 C17.8359375,0.546875 15.765625,0 13.5,0 C11.546875,0 9.7109375,0.4296875 8.03125,1.25 C6.3515625,2.0703125 4.7890625,3.28125 3.6171875,4.84375 L7.25,10.9375 C7.6015625,9.53125 8.421875,8.359375 9.5546875,7.4609375" id="Fill-2" sketch:type="MSShapeGroup"></path>
            <path d="M25.0625,7.8125 L17.796875,7.8125 C19.046875,9.0625 19.90625,10.703125 19.90625,12.5 C19.90625,13.828125 19.515625,15.0390625 18.7734375,16.171875 L13.65625,25 C17.09375,24.9609375 19.984375,23.75 22.40625,21.2890625 C24.7890625,18.828125 26,15.9375 26,12.5 C26,10.8984375 25.7265625,9.21875 25.0625,7.8125" id="Fill-3" sketch:type="MSShapeGroup"></path>
            <path d="M13.5,7.8125 C16.0888672,7.8125 18.1875,9.91113281 18.1875,12.5 C18.1875,15.0888672 16.0888672,17.1875 13.5,17.1875 C10.9111328,17.1875 8.8125,15.0888672 8.8125,12.5 C8.8125,9.91113281 10.9111328,7.8125 13.5,7.8125" id="Fill-4" sketch:type="MSShapeGroup"></path>
        </g>
    </g>
</svg>