<?xml version="1.0" encoding="utf-8"?>
<!-- Generator: Adobe Illustrator 18.1.1, SVG Export Plug-In . SVG Version: 6.00 Build 0)  -->
<!DOCTYPE svg PUBLIC "-//W3C//DTD SVG 1.1//EN" "http://www.w3.org/Graphics/SVG/1.1/DTD/svg11.dtd">
<svg version="1.1" id="Layer_1" xmlns="http://www.w3.org/2000/svg" xmlns:xlink="http://www.w3.org/1999/xlink" x="0px" y="0px"
	 viewBox="0 0 47.1 46.3" enable-background="new 0 0 47.1 46.3" xml:space="preserve">
<g>
	<rect x="18.6" y="8.1" fill="#D0D7DD" width="14.5" height="8"/>
	<g>
		<circle fill="#FFFFFF" stroke="#3B5062" stroke-width="2" stroke-miterlimit="10" cx="11.9" cy="37.3" r="5.6"/>
		<path fill="#D0D7DD" d="M9,39.1c0,1.5,0.6,2.9,1.7,3.9c0.5,0.2,1.1,0.3,1.7,0.3c3.1,0,5.6-2.5,5.6-5.6c0-1.1-0.3-2.2-0.9-3
			c-0.8-0.5-1.8-0.8-2.8-0.8C11.3,33.8,9,36.2,9,39.1z"/>
		<circle fill="none" stroke="#3B5062" stroke-width="2" stroke-miterlimit="10" cx="11.9" cy="37.3" r="5.6"/>
	</g>
	<g>
		<circle fill="#FFFFFF" stroke="#3B5062" stroke-width="2" stroke-miterlimit="10" cx="35.9" cy="37.3" r="5.6"/>
		<path fill="#D0D7DD" d="M32.9,39.1c0,1.5,0.6,2.9,1.7,3.9c0.5,0.2,1.1,0.3,1.7,0.3c3.1,0,5.6-2.5,5.6-5.6c0-1.1-0.3-2.2-0.9-3
			c-0.8-0.5-1.8-0.8-2.8-0.8C35.3,33.8,32.9,36.2,32.9,39.1z"/>
		<circle fill="none" stroke="#3B5062" stroke-width="2" stroke-miterlimit="10" cx="35.9" cy="37.3" r="5.6"/>
	</g>
	<rect x="14.8" y="3.9" fill="none" stroke="#3B5062" stroke-width="2" stroke-miterlimit="10" width="18" height="11.8"/>
	<line fill="none" stroke="#3B5062" stroke-width="2" stroke-miterlimit="10" x1="23.8" y1="15.9" x2="23.8" y2="22.4"/>
	<polyline fill="none" stroke="#3B5062" stroke-width="2" stroke-miterlimit="10" points="11.9,31.6 11.9,22.6 35.8,22.6 35.8,31.6 
			"/>
</g>
</svg>
