<?xml version="1.0" encoding="utf-8"?>
<!-- Generator: Adobe Illustrator 18.1.1, SVG Export Plug-In . SVG Version: 6.00 Build 0)  -->
<!DOCTYPE svg PUBLIC "-//W3C//DTD SVG 1.1//EN" "http://www.w3.org/Graphics/SVG/1.1/DTD/svg11.dtd">
<svg version="1.1" id="Layer_1" xmlns="http://www.w3.org/2000/svg" xmlns:xlink="http://www.w3.org/1999/xlink" x="0px" y="0px"
	 viewBox="0 0 47.1 46.3" enable-background="new 0 0 47.1 46.3" xml:space="preserve">
<g>
	<polygon fill="none" stroke="#3B5062" stroke-width="2" stroke-miterlimit="10" points="45.6,4.3 28,4.3 28,26 34.6,26 42,32 
		42,26 45.6,26 	"/>
	<line fill="none" stroke="#3B5062" stroke-width="2" stroke-miterlimit="10" x1="32.5" y1="11.8" x2="42.5" y2="11.8"/>
	<line fill="none" stroke="#3B5062" stroke-width="2" stroke-miterlimit="10" x1="32.5" y1="17.8" x2="39.5" y2="17.8"/>
	<polygon fill="none" stroke="#3B5062" stroke-width="2" stroke-miterlimit="10" points="2,4.3 19.6,4.3 19.6,26 13,26 5.6,32 
		5.6,26 2,26 	"/>
	<line fill="none" stroke="#3B5062" stroke-width="2" stroke-miterlimit="10" x1="6.5" y1="11.8" x2="16.5" y2="11.8"/>
	<line fill="none" stroke="#3B5062" stroke-width="2" stroke-miterlimit="10" x1="6.5" y1="17.8" x2="13.5" y2="17.8"/>
	<polygon fill="#FFFFFF" stroke="#3B5062" stroke-width="2" stroke-miterlimit="10" points="32.6,15.3 15,15.3 15,37 21.6,37 29,43 
		29,37 32.6,37 	"/>
	<polygon fill="#D0D7DD" points="18,19.7 18,37 21.6,37 29,43 29,37 32.6,37 32.6,19.7 	"/>
	<line fill="none" stroke="#3B5062" stroke-width="2" stroke-miterlimit="10" x1="19.5" y1="22.8" x2="29.5" y2="22.8"/>
	<line fill="none" stroke="#3B5062" stroke-width="2" stroke-miterlimit="10" x1="19.5" y1="28.8" x2="26.5" y2="28.8"/>
	<polygon fill="none" stroke="#3B5062" stroke-width="2" stroke-miterlimit="10" points="32.6,15.3 15,15.3 15,37 21.6,37 29,43 
		29,37 32.6,37 	"/>
</g>
</svg>
