<?xml version="1.0" encoding="utf-8"?>
<svg version="1.1" xmlns:sketch="http://www.bohemiancoding.com/sketch/ns"
	 xmlns="http://www.w3.org/2000/svg" xmlns:xlink="http://www.w3.org/1999/xlink" x="0px" y="0px" viewBox="-287 374 37 45"
	 enable-background="new -287 374 37 45" xml:space="preserve">
<path id="apple" sketch:type="MSShapeGroup" fill="#A6B1B7" d="M-256.4,397.9c-0.1-5.6,4.6-8.3,4.8-8.4c-2.6-3.8-6.6-4.3-8.1-4.4
	c-3.4-0.4-6.7,2-8.4,2c-1.8,0-4.4-2-7.3-1.9c-3.7,0.1-7.1,2.2-9,5.5c-3.9,6.8-1,16.7,2.8,22.2c1.9,2.7,4.1,5.7,6.9,5.6
	c2.8-0.1,3.8-1.8,7.2-1.8c3.4,0,4.3,1.8,7.3,1.7c3,0,4.9-2.7,6.7-5.4c2.2-3.1,3-6.1,3.1-6.2C-250.6,406.8-256.3,404.6-256.4,397.9z
	 M-261.9,381.6c1.5-1.9,2.5-4.4,2.3-7.1c-2.2,0.1-4.9,1.5-6.5,3.4c-1.4,1.6-2.6,4.3-2.3,6.8C-266,384.8-263.5,383.4-261.9,381.6z"/>
</svg>
