<?xml version="1.0" encoding="UTF-8" standalone="no"?>
<svg width="55px" height="19px" viewBox="0 0 55 19" version="1.1" xmlns="http://www.w3.org/2000/svg" xmlns:xlink="http://www.w3.org/1999/xlink" xmlns:sketch="http://www.bohemiancoding.com/sketch/ns">
    <!-- Generator: Sketch 3.3.2 (12043) - http://www.bohemiancoding.com/sketch -->
    <title>Imported Layers</title>
    <desc>Created with Sketch.</desc>
    <defs></defs>
    <g id="Page-1" stroke="none" stroke-width="1" fill="none" fill-rule="evenodd" sketch:type="MSPage">
        <g id="Imported-Layers" sketch:type="MSLayerGroup" fill="#7D8790">
            <path d="M54.8294574,4.61446667 L52.000155,4.61446667 L50.3655039,11.4633333 L50.1139535,12.3972889 C49.9255039,12.4597778 49.7997287,12.4597778 49.6108527,12.5218444 C49.2966279,12.5843333 49.0450775,12.5843333 48.7308527,12.5843333 C48.3535271,12.5843333 48.1019767,12.5218444 47.8504264,12.3972889 C47.6619767,12.2727333 47.4731008,12.1481778 47.4104264,11.9615556 C47.3477519,11.7749333 47.2846512,11.5258222 47.2846512,11.2767111 C47.2846512,11.0276 47.3477519,10.7164222 47.4104264,10.4673111 L48.2908527,6.91811111 L48.8566279,4.5524 L45.9642248,4.5524 L44.6442248,10.0311556 C44.4553488,10.7164222 44.3926744,11.3387778 44.3926744,11.8990667 C44.3926744,12.5218444 44.4553488,13.0200667 44.6442248,13.4558 C44.8326744,13.8915333 45.21,14.2652 45.7126744,14.5143111 C46.2157752,14.7634222 46.9073256,14.8879778 47.7877519,14.8879778 C48.4166279,14.8879778 48.9824031,14.8254889 49.4224031,14.7009333 L49.4850775,14.7009333 C49.3593023,15.2616444 49.1081783,15.6973778 48.6677519,16.0710444 C48.2277519,16.4447111 47.6619767,16.6313333 46.8446512,16.6313333 C46.5304264,16.6313333 46.1531008,16.6313333 45.9015504,16.5688444 L45.3357752,18.8729111 C45.7126744,18.9349778 46.1531008,18.9349778 46.5931008,18.9349778 C47.4731008,18.9349778 48.2277519,18.8104222 48.8566279,18.6238 C49.4855039,18.4367556 50.0512791,18.1255778 50.5539535,17.7519111 C50.9943798,17.3782444 51.4343798,16.8804444 51.7486047,16.2576667 C52.0628295,15.6348889 52.3143798,14.9500444 52.5032558,14.1406444 L54.4521318,5.98415556 L54.8294574,4.61446667" id="Fill-1" sketch:type="MSShapeGroup"></path>
            <path d="M42.9464729,10.4673111 C42.7580233,11.1521556 42.6949225,11.8990667 42.7580233,12.6464 C42.8206977,13.3937333 43.1349225,14.4522444 43.3864729,15.0125333 L40.6202713,15.0125333 C40.3060465,14.4522444 40.3060465,14.2031333 40.2429457,14.0160889 C39.8656202,14.3276889 39.4882946,14.5143111 39.0482946,14.7009333 C38.6082946,14.8879778 38.1682946,15.0125333 37.6025194,15.0125333 C36.9736434,15.0125333 36.4078682,14.8879778 35.9674419,14.7009333 C35.5274419,14.5143111 35.1501163,14.2031333 34.8358915,13.8294667 C34.5216667,13.4558 34.3327907,13.0200667 34.2070155,12.5218444 C34.0812403,12.0236222 34.0185659,11.5258222 34.0185659,10.9030444 C34.0185659,10.0311556 34.2070155,9.22175556 34.4585659,8.47484444 C34.7732171,7.72751111 35.2132171,7.04266667 35.7789922,6.48237778 C36.3447674,5.92208889 37.6651938,4.61446667 39.8656202,4.61446667 L44.2668992,4.61446667 L42.9464729,10.4673111 L42.9464729,10.4673111 Z M40.9344961,6.9806 C39.6140698,6.9806 39.3625194,6.9806 38.7967442,7.22971111 C38.4194186,7.41633333 38.1051938,7.72751111 37.790969,8.10117778 C37.5394186,8.41235556 37.2878682,8.84851111 37.0994186,9.28424444 C36.9105426,9.71997778 36.8478682,10.2182 36.8478682,10.7164222 C36.8478682,11.3387778 36.9736434,11.7749333 37.162093,12.1481778 C37.350969,12.5218444 37.7278682,12.6464 38.2940698,12.6464 C38.6082946,12.6464 38.859845,12.5843333 39.1113953,12.4597778 C39.3625194,12.3352222 39.6140698,12.1481778 39.8656202,11.8990667 C39.8656202,11.5878889 39.9287209,11.2767111 39.9913953,10.9030444 C40.0544961,10.5293778 40.1171705,10.2182 40.1802713,9.96908889 L40.9344961,6.9806 L40.9344961,6.9806 Z" id="Fill-2" sketch:type="MSShapeGroup"></path>
            <path d="M33.3270155,8.72395556 C33.3270155,9.65791111 33.1381395,10.4673111 32.8870155,11.2767111 C32.5723643,12.0236222 32.1323643,12.7084667 31.6292636,13.2691778 C31.0634884,13.8294667 30.4346124,14.2652 29.6803876,14.5763778 C28.9257364,14.8879778 28.1084109,15.0746 27.2284109,15.0746 C26.7879845,15.0746 26.3479845,15.0125333 25.9079845,14.9500444 L25.0275581,18.3746889 L22.1982558,18.3746889 L25.4679845,4.67653333 L29.2403876,4.67653333 C29.931938,4.67653333 30.5603876,4.80108889 31.0634884,4.98813333 C31.5665891,5.17475556 32.0065891,5.48593333 32.320814,5.8596 C32.6354651,6.23326667 32.8865891,6.669 33.0754651,7.16722222 C33.2639147,7.60295556 33.3270155,8.16366667 33.3270155,8.72395556 L33.3270155,8.72395556 Z M26.3479845,12.5843333 C26.5368605,12.6464 26.8510853,12.6464 27.1653101,12.6464 C27.6684109,12.6464 28.1084109,12.5843333 28.5488372,12.3972889 C28.9257364,12.2106667 29.303062,11.9615556 29.6172868,11.6503778 C29.931938,11.3387778 30.1203876,10.9030444 30.3092636,10.4673111 C30.4977132,10.0311556 30.5603876,9.47086667 30.5603876,8.91057778 C30.5603876,8.35028889 30.4346124,7.91455556 30.183062,7.54088889 C29.931938,7.16722222 29.4915116,6.9806 28.9257364,6.9806 L27.794186,6.9806 L26.3479845,12.5843333 L26.3479845,12.5843333 Z" id="Fill-3" sketch:type="MSShapeGroup"></path>
            <path d="M20.4378295,12.5843333 C20.0609302,12.5843333 19.8093798,12.5218444 19.5578295,12.3972889 C19.3693798,12.2727333 19.1805039,12.1481778 19.1178295,11.9615556 C19.0547287,11.7749333 18.9920543,11.5258222 18.9920543,11.2767111 C18.9920543,11.0276 19.0547287,10.7164222 19.1178295,10.4673111 L19.9978295,6.91811111 L23.2044574,6.91811111 L23.7702326,4.5524 L20.5009302,4.5524 L21.255155,1.56348889 L18.2374031,2.06171111 L16.3512016,10.0936444 C16.1627519,10.7784889 16.0996512,11.4012667 16.0996512,11.9615556 C16.0996512,12.5843333 16.1627519,13.0821333 16.3512016,13.5182889 C16.5400775,13.9540222 16.9169767,14.3276889 17.4200775,14.5763778 C17.9231783,14.8254889 18.6147287,14.9500444 19.4947287,14.9500444 C20.1236047,14.9500444 20.6893798,14.8879778 21.1298062,14.7634222 C21.1924806,14.7634222 21.255155,14.7634222 21.3182558,14.7009333 L21.884031,12.2727333 C21.6955814,12.3352222 21.5067054,12.3972889 21.3182558,12.3972889 C21.004031,12.5843333 20.7524806,12.5843333 20.4378295,12.5843333" id="Fill-4" sketch:type="MSShapeGroup"></path>
            <path d="M13.2076744,4.61446667 L10.6925969,15.0125333 L13.5218992,15.0125333 L16.0369767,4.61446667 L13.2076744,4.61446667" id="Fill-5" sketch:type="MSShapeGroup"></path>
            <path d="M16.2885271,3.36933333 L16.7285271,1.56348889 L13.8992248,1.56348889 L13.4592248,3.36933333 L16.2885271,3.36933333" id="Fill-6" sketch:type="MSShapeGroup"></path>
            <path d="M6.9201938,4.61446667 C7.54906977,4.61446667 8.05217054,4.73902222 8.49217054,4.92564444 C8.93217054,5.11268889 9.30949612,5.42386667 9.62372093,5.79753333 C9.93837209,6.1712 10.1268217,6.60693333 10.2525969,7.10515556 C10.3783721,7.60295556 10.4410465,8.10117778 10.4410465,8.66146667 C10.4410465,9.53335556 10.2525969,10.3427556 9.93837209,11.1521556 C9.62372093,11.8990667 9.18372093,12.5843333 8.61794574,13.2066889 C8.05217054,13.8294667 7.42329457,14.2031333 6.60596899,14.5763778 C5.85131783,14.8879778 5.03399225,15.0746 4.15399225,15.0746 L3.52511628,15.0746 C3.21089147,15.0746 2.89666667,15.0746 2.51934109,15.0125333 C2.1420155,14.9500444 1.76468992,14.8879778 1.32468992,14.7634222 C0.884689922,14.6388667 0.507364341,14.5143111 0.13003876,14.3276889 L3.39934109,0.629533333 L6.3544186,0.1938 L5.15976744,5.0502 C5.41131783,4.92564444 5.66286822,4.86357778 5.9144186,4.80108889 C6.3544186,4.61446667 6.60596899,4.61446667 6.9201938,4.61446667 L6.9201938,4.61446667 Z M4.40554264,12.7084667 C4.84554264,12.7084667 5.28554264,12.5843333 5.66286822,12.3972889 C6.0401938,12.2106667 6.41751938,11.8990667 6.66864341,11.5258222 C6.98329457,11.1521556 7.17174419,10.7784889 7.36062016,10.3427556 C7.54906977,9.90702222 7.61174419,9.4088 7.61174419,8.91057778 C7.61174419,8.2878 7.48596899,7.85206667 7.29751938,7.4784 C7.10906977,7.16722222 6.66864341,6.9806 6.10286822,6.9806 C5.9144186,6.9806 5.72554264,6.9806 5.4744186,7.04266667 C5.15976744,7.10515556 4.97131783,7.22971111 4.71976744,7.41633333 L3.46244186,12.5843333 C3.83976744,12.6464 3.96511628,12.6464 4.02821705,12.6464 C4.15399225,12.7084667 4.27976744,12.7084667 4.40554264,12.7084667 L4.40554264,12.7084667 Z" id="Fill-7" sketch:type="MSShapeGroup"></path>
        </g>
    </g>
</svg>